{
  "asset": {
    "generator": "glTF-Transform v4.2.1",
    "version": "2.0"
  },
  "accessors": [
    {
      "type": "VEC3",
      "componentType": 5126,
      "count": 890,
      "max": [
        -0.013973236083984375,
        30.767906188964844,
        24.249996185302734
      ],
      "min": [
        -15.945011138916016,
        8.435894012451172,
        -8.250003814697266
      ],
      "bufferView": 0,
      "byteOffset": 0
    },
    {
      "type": "VEC2",
      "componentType": 5126,
      "count": 890,
      "bufferView": 0,
      "byteOffset": 12
    },
    {
      "type": "VEC3",
      "componentType": 5126,
      "count": 890,
      "bufferView": 0,
      "byteOffset": 20
    },
    {
      "type": "SCALAR",
      "componentType": 5123,
      "count": 4686,
      "bufferView": 1,
      "byteOffset": 0
    }
  ],
  "bufferViews": [
    {
      "buffer": 0,
      "byteOffset": 0,
      "byteLength": 28480,
      "byteStride": 32,
      "target": 34962
    },
    {
      "buffer": 0,
      "byteOffset": 28480,
      "byteLength": 9372,
      "target": 34963
    }
  ],
  "buffers": [
    {
      "uri": "buffer.bin",
      "byteLength": 37852
    }
  ],
  "materials": [
    {
      "name": "Material #96",
      "extras": {
        "bitmap": "I:\\甜柠檬\\变形\\1动作\\猪人\\pigzombie.png"
      },
      "pbrMetallicRoughness": {
        "baseColorFactor": [
          0.5879999995231628,
          0.5879999995231628,
          0.5879999995231628,
          1
        ],
        "roughnessFactor": 0.5,
        "metallicFactor": 0
      },
      "extensions": {
        "KHR_materials_specular": {
          "specularColorFactor": [
            0.8999999761581421,
            0.8999999761581421,
            0.8999999761581421
          ]
        }
      }
    }
  ],
  "meshes": [
    {
      "primitives": [
        {
          "attributes": {
            "POSITION": 0,
            "TEXCOORD_0": 1,
            "NORMAL": 2
          },
          "mode": 4,
          "material": 0,
          "indices": 3
        }
      ]
    }
  ],
  "nodes": [
    {
      "name": "Object_2_15"
    },
    {
      "name": "Object_2_29"
    },
    {
      "name": "Object_2_43"
    },
    {
      "name": "Object_2_57"
    },
    {
      "name": "Object_2_71"
    },
    {
      "name": "Object_2_85"
    },
    {
      "name": "Object_2_99"
    },
    {
      "name": "Object_2_113"
    },
    {
      "name": "Object_2_127"
    },
    {
      "name": "Object_2_141"
    },
    {
      "name": "Object_2_155"
    },
    {
      "name": "Object_2_169"
    },
    {
      "name": "Object_2_183"
    },
    {
      "name": "Object_2_197"
    },
    {
      "name": "Object_2_211"
    },
    {
      "name": "Object_2_225"
    },
    {
      "name": "Object_2_239"
    },
    {
      "name": "Object_2_253"
    },
    {
      "name": "Object_2_267"
    },
    {
      "name": "Object_2_281"
    },
    {
      "name": "Object_2_295"
    },
    {
      "name": "Object_2_309"
    },
    {
      "name": "Object_2_323"
    },
    {
      "name": "Object_2_337"
    },
    {
      "name": "Object_2_358"
    },
    {
      "name": "root",
      "translation": [
        -0.0029241342563182116,
        -0.0005308036925271153,
        -2.320216588302948e-11
      ],
      "rotation": [
        0.5000000753763382,
        0.5000001568366864,
        0.4999999246236233,
        0.49999984316329205
      ],
      "children": [
        26
      ]
    },
    {
      "name": "all",
      "translation": [
        10.836310386657715,
        0,
        -0.010109433904290201
      ],
      "children": [
        27,
        30
      ]
    },
    {
      "name": "down",
      "translation": [
        -3.47921061515808,
        8.271806125530277e-25,
        -0.03604477643966675
      ],
      "rotation": [
        5.7684683453442205e-8,
        0.9999945893264333,
        0.000004247656258397933,
        -0.0032895744119977306
      ],
      "children": [
        28,
        29
      ]
    },
    {
      "name": "Bone001",
      "translation": [
        -4.773888587951661,
        -0.000017166137695312503,
        2.007498502731323
      ],
      "rotation": [
        0.000016629627040341528,
        -0.005148149638463961,
        -6.005701238616656e-9,
        0.9999867480515707
      ]
    },
    {
      "name": "Bone002",
      "translation": [
        -4.755811691284179,
        0.000016212463378906247,
        -1.7457569837570188
      ],
      "rotation": [
        0.000003722772194306933,
        0.015220114936353647,
        -5.666758463655329e-8,
        0.9998841673351279
      ]
    },
    {
      "name": "up",
      "translation": [
        0.50008273124695,
        9.5367431640625e-7,
        0.022347588092088706
      ],
      "children": [
        31
      ]
    },
    {
      "name": "Bone006",
      "translation": [
        0.8394010066986066,
        0,
        -0.0275801345705986
      ],
      "rotation": [
        4.135906262120637e-25,
        -0.0012438294064488124,
        0,
        0.9999992264439047
      ],
      "children": [
        32,
        34,
        35
      ]
    },
    {
      "name": "Bone003",
      "translation": [
        11.682289123535153,
        0,
        -5.770270347595215
      ],
      "rotation": [
        0.7115723581996943,
        0.7011724843449403,
        0.031505383602742756,
        0.032083282994644975
      ],
      "children": [
        33
      ]
    },
    {
      "name": "Bone010",
      "translation": [
        10.595006942749023,
        0.3409023284912074,
        -0.27958154678344815
      ],
      "rotation": [
        0.4990663271805123,
        0.49690616926355347,
        0.5009375845246686,
        0.5030691765880366
      ]
    },
    {
      "name": "Bone004",
      "translation": [
        11.772921562194824,
        0.0000019073486328125,
        5.476404190063476
      ],
      "rotation": [
        0.7117301011649229,
        0.7013179010231714,
        -0.028086972555228608,
        -0.02836523881274033
      ]
    },
    {
      "name": "Bone005",
      "translation": [
        11.965998649597168,
        0.0000019073486328124996,
        -0.0020928187295794487
      ],
      "rotation": [
        -0.0000035762774773999663,
        -0.0008223055866440161,
        -2.9407939433366848e-9,
        0.9999996619003091
      ]
    },
    {
      "name": "leftArmuuu",
      "translation": [
        -0.002250618301331997,
        16.409912109375,
        -5.053788185119629
      ],
      "rotation": [
        0,
        0.9999999999999991,
        0,
        4.371139000186242e-8
      ],
      "scale": [
        1.0006538629531858,
        1.000653862953186,
        1.0006538629531858
      ],
      "children": [
        37
      ]
    },
    {
      "name": "leftArmuuu_1",
      "translation": [
        7.999999523162842,
        -8,
        8
      ],
      "rotation": [
        -0.7071067811865475,
        0,
        0,
        0.7071067811865476
      ],
      "mesh": 0
    }
  ],
  "scenes": [
    {
      "name": "empty_1",
      "nodes": [
        0,
        1,
        2,
        3,
        4,
        5,
        6,
        7,
        8,
        9,
        10,
        11,
        12,
        13,
        14,
        15,
        16,
        17,
        18,
        19,
        20,
        21,
        22,
        23,
        24,
        25,
        36
      ]
    }
  ],
  "scene": 0,
  "extensionsUsed": [
    "KHR_materials_specular"
  ]
}