{
  "accessors": [
    {
      "bufferView": 2,
      "componentType": 5126,
      "count": 24,
      "max": [
        0.4375,
        0.6875,
        1.03125
      ],
      "min": [
        0.125,
        0.0,
        0.71875
      ],
      "type": "VEC3"
    },
    {
      "bufferView": 2,
      "byteOffset": 288,
      "componentType": 5126,
      "count": 24,
      "max": [
        1.0,
        1.0,
        1.0
      ],
      "min": [
        -1.0,
        -1.0,
        -1.0
      ],
      "type": "VEC3"
    },
    {
      "bufferView": 1,
      "componentType": 5126,
      "count": 24,
      "max": [
        0.3201904296875,
        0.296630859375
      ],
      "min": [
        0.1641845703125,
        0.047119140625
      ],
      "type": "VEC2"
    },
    {
      "bufferView": 0,
      "componentType": 5125,
      "count": 36,
      "type": "SCALAR"
    },
    {
      "bufferView": 2,
      "byteOffset": 576,
      "componentType": 5126,
      "count": 24,
      "max": [
        -0.125,
        0.6875,
        1.03125
      ],
      "min": [
        -0.4375,
        0.0,
        0.71875
      ],
      "type": "VEC3"
    },
    {
      "bufferView": 2,
      "byteOffset": 864,
      "componentType": 5126,
      "count": 24,
      "max": [
        1.0,
        1.0,
        1.0
      ],
      "min": [
        -1.0,
        -1.0,
        -1.0
      ],
      "type": "VEC3"
    },
    {
      "bufferView": 1,
      "byteOffset": 192,
      "componentType": 5126,
      "count": 24,
      "max": [
        0.1561279296875,
        0.296630859375
      ],
      "min": [
        0.0001220703125,
        0.047119140625
      ],
      "type": "VEC2"
    },
    {
      "bufferView": 0,
      "byteOffset": 144,
      "componentType": 5125,
      "count": 36,
      "type": "SCALAR"
    },
    {
      "bufferView": 2,
      "byteOffset": 1152,
      "componentType": 5126,
      "count": 24,
      "max": [
        0.4375,
        0.875,
        -0.09375
      ],
      "min": [
        0.0625,
        0.0,
        -0.46875
      ],
      "type": "VEC3"
    },
    {
      "bufferView": 2,
      "byteOffset": 1440,
      "componentType": 5126,
      "count": 24,
      "max": [
        1.0,
        1.0,
        1.0
      ],
      "min": [
        -1.0,
        -1.0,
        -1.0
      ],
      "type": "VEC3"
    },
    {
      "bufferView": 1,
      "byteOffset": 384,
      "componentType": 5126,
      "count": 24,
      "max": [
        0.7030029296875,
        0.343505859375
      ],
      "min": [
        0.5157470703125,
        0.031494140625
      ],
      "type": "VEC2"
    },
    {
      "bufferView": 0,
      "byteOffset": 288,
      "componentType": 5125,
      "count": 36,
      "type": "SCALAR"
    },
    {
      "bufferView": 2,
      "byteOffset": 1728,
      "componentType": 5126,
      "count": 24,
      "max": [
        -0.0625,
        0.875,
        -0.09375
      ],
      "min": [
        -0.4375,
        0.0,
        -0.46875
      ],
      "type": "VEC3"
    },
    {
      "bufferView": 2,
      "byteOffset": 2016,
      "componentType": 5126,
      "count": 24,
      "max": [
        1.0,
        1.0,
        1.0
      ],
      "min": [
        -1.0,
        -1.0,
        -1.0
      ],
      "type": "VEC3"
    },
    {
      "bufferView": 1,
      "byteOffset": 576,
      "componentType": 5126,
      "count": 24,
      "max": [
        0.5076904296875,
        0.343505859375
      ],
      "min": [
        0.3204345703125,
        0.031494140625
      ],
      "type": "VEC2"
    },
    {
      "bufferView": 0,
      "byteOffset": 432,
      "componentType": 5125,
      "count": 36,
      "type": "SCALAR"
    },
    {
      "bufferView": 2,
      "byteOffset": 2304,
      "componentType": 5126,
      "count": 24,
      "max": [
        6.25000029685907e-05,
        1.9375,
        0.46875
      ],
      "min": [
        0.0,
        1.3125,
        -0.71875
      ],
      "type": "VEC3"
    },
    {
      "bufferView": 2,
      "byteOffset": 2592,
      "componentType": 5126,
      "count": 24,
      "max": [
        1.0,
        1.0,
        1.0
      ],
      "min": [
        -1.0,
        -1.0,
        -1.0
      ],
      "type": "VEC3"
    },
    {
      "bufferView": 1,
      "byteOffset": 768,
      "componentType": 5126,
      "count": 24,
      "max": [
        1.0001220703125,
        0.484130859375
      ],
      "min": [
        0.7032470703125,
        0.031494140625
      ],
      "type": "VEC2"
    },
    {
      "bufferView": 0,
      "byteOffset": 576,
      "componentType": 5125,
      "count": 36,
      "type": "SCALAR"
    },
    {
      "bufferView": 2,
      "byteOffset": 2880,
      "componentType": 5126,
      "count": 24,
      "max": [
        0.5,
        1.5,
        1.09375
      ],
      "min": [
        -0.5,
        0.625,
        -0.53125
      ],
      "type": "VEC3"
    },
    {
      "bufferView": 2,
      "byteOffset": 3168,
      "componentType": 5126,
      "count": 24,
      "max": [
        1.0,
        1.0,
        1.0
      ],
      "min": [
        -1.0,
        -1.0,
        -1.0
      ],
      "type": "VEC3"
    },
    {
      "bufferView": 1,
      "byteOffset": 960,
      "componentType": 5126,
      "count": 24,
      "max": [
        0.6639404296875,
        0.984130859375
      ],
      "min": [
        0.0079345703125,
        0.359619140625
      ],
      "type": "VEC2"
    },
    {
      "bufferView": 0,
      "byteOffset": 720,
      "componentType": 5125,
      "count": 36,
      "type": "SCALAR"
    },
    {
      "bufferView": 2,
      "byteOffset": 3456,
      "componentType": 5126,
      "count": 24,
      "max": [
        0.4375,
        1.5,
        -0.53125
      ],
      "min": [
        -0.4375,
        1.125,
        -1.71875
      ],
      "type": "VEC3"
    },
    {
      "bufferView": 2,
      "byteOffset": 3744,
      "componentType": 5126,
      "count": 24,
      "max": [
        1.0,
        1.0,
        1.0
      ],
      "min": [
        -1.0,
        -1.0,
        -1.0
      ],
      "type": "VEC3"
    },
    {
      "bufferView": 1,
      "byteOffset": 1152,
      "componentType": 5126,
      "count": 24,
      "max": [
        0.9920654296875,
        0.984130859375
      ],
      "min": [
        0.4766845703125,
        0.593994140625
      ],
      "type": "VEC2"
    },
    {
      "bufferView": 0,
      "byteOffset": 864,
      "componentType": 5125,
      "count": 36,
      "type": "SCALAR"
    },
    {
      "bufferView": 2,
      "byteOffset": 4032,
      "componentType": 5126,
      "count": 24,
      "max": [
        -0.375,
        1.875,
        -1.21875
      ],
      "min": [
        -0.5,
        1.1875,
        -1.34375
      ],
      "type": "VEC3"
    },
    {
      "bufferView": 2,
      "byteOffset": 4320,
      "componentType": 5126,
      "count": 24,
      "max": [
        1.0,
        1.0,
        1.0
      ],
      "min": [
        -1.0,
        -1.0,
        -1.0
      ],
      "type": "VEC3"
    },
    {
      "bufferView": 1,
      "byteOffset": 1344,
      "componentType": 5126,
      "count": 24,
      "max": [
        0.0701904296875,
        0.796630859375
      ],
      "min": [
        0.0079345703125,
        0.593994140625
      ],
      "type": "VEC2"
    },
    {
      "bufferView": 0,
      "byteOffset": 1008,
      "componentType": 5125,
      "count": 36,
      "type": "SCALAR"
    },
    {
      "bufferView": 2,
      "byteOffset": 4608,
      "componentType": 5126,
      "count": 24,
      "max": [
        0.5,
        1.875,
        -1.21875
      ],
      "min": [
        0.375,
        1.1875,
        -1.34375
      ],
      "type": "VEC3"
    },
    {
      "bufferView": 2,
      "byteOffset": 4896,
      "componentType": 5126,
      "count": 24,
      "max": [
        1.0,
        1.0,
        1.0
      ],
      "min": [
        -1.0,
        -1.0,
        -1.0
      ],
      "type": "VEC3"
    },
    {
      "bufferView": 1,
      "byteOffset": 1536,
      "componentType": 5126,
      "count": 24,
      "max": [
        0.1405029296875,
        0.796630859375
      ],
      "min": [
        0.0782470703125,
        0.593994140625
      ],
      "type": "VEC2"
    },
    {
      "bufferView": 0,
      "byteOffset": 1152,
      "componentType": 5125,
      "count": 36,
      "type": "SCALAR"
    },
    {
      "bufferView": 2,
      "byteOffset": 5184,
      "componentType": 5126,
      "count": 24,
      "max": [
        -0.375,
        1.5,
        -0.59375
      ],
      "min": [
        -0.75,
        1.4375,
        -0.84375
      ],
      "type": "VEC3"
    },
    {
      "bufferView": 2,
      "byteOffset": 5472,
      "componentType": 5126,
      "count": 24,
      "max": [
        1.0,
        1.0,
        1.0
      ],
      "min": [
        -1.0,
        -1.0,
        -1.0
      ],
      "type": "VEC3"
    },
    {
      "bufferView": 1,
      "byteOffset": 1728,
      "componentType": 5126,
      "count": 24,
      "max": [
        0.1639404296875,
        0.906005859375
      ],
      "min": [
        0.0079345703125,
        0.828369140625
      ],
      "type": "VEC2"
    },
    {
      "bufferView": 0,
      "byteOffset": 1296,
      "componentType": 5125,
      "count": 36,
      "type": "SCALAR"
    },
    {
      "bufferView": 2,
      "byteOffset": 5760,
      "componentType": 5126,
      "count": 24,
      "max": [
        0.75,
        1.5,
        -0.59375
      ],
      "min": [
        0.375,
        1.4375,
        -0.84375
      ],
      "type": "VEC3"
    },
    {
      "bufferView": 2,
      "byteOffset": 6048,
      "componentType": 5126,
      "count": 24,
      "max": [
        1.0,
        1.0,
        1.0
      ],
      "min": [
        -1.0,
        -1.0,
        -1.0
      ],
      "type": "VEC3"
    },
    {
      "bufferView": 1,
      "byteOffset": 1920,
      "componentType": 5126,
      "count": 24,
      "max": [
        0.1639404296875,
        0.984130859375
      ],
      "min": [
        0.0079345703125,
        0.906494140625
      ],
      "type": "VEC2"
    },
    {
      "bufferView": 0,
      "byteOffset": 1440,
      "componentType": 5125,
      "count": 36,
      "type": "SCALAR"
    },
    {
      "bufferView": 3,
      "componentType": 5126,
      "count": 29,
      "max": [
        1.559999942779541
      ],
      "min": [
        0.0
      ],
      "type": "SCALAR"
    },
    {
      "bufferView": 4,
      "componentType": 5126,
      "count": 29,
      "max": [
        0.30070579051971436,
        0.0,
        0.0,
        1.0
      ],
      "min": [
        -0.30070579051971436,
        0.0,
        0.0,
        0.9537169337272644
      ],
      "type": "VEC4"
    },
    {
      "bufferView": 3,
      "byteOffset": 116,
      "componentType": 5126,
      "count": 29,
      "max": [
        1.559999942779541
      ],
      "min": [
        0.0
      ],
      "type": "SCALAR"
    },
    {
      "bufferView": 4,
      "byteOffset": 464,
      "componentType": 5126,
      "count": 29,
      "max": [
        0.258819043636322,
        0.0,
        0.0,
        1.0
      ],
      "min": [
        -0.258819043636322,
        0.0,
        0.0,
        0.9659258127212524
      ],
      "type": "VEC4"
    },
    {
      "bufferView": 3,
      "byteOffset": 232,
      "componentType": 5126,
      "count": 29,
      "max": [
        1.559999942779541
      ],
      "min": [
        0.0
      ],
      "type": "SCALAR"
    },
    {
      "bufferView": 4,
      "byteOffset": 928,
      "componentType": 5126,
      "count": 29,
      "max": [
        0.237685889005661,
        0.0,
        0.0,
        1.0
      ],
      "min": [
        -0.237685889005661,
        0.0,
        0.0,
        0.9713420867919922
      ],
      "type": "VEC4"
    },
    {
      "bufferView": 3,
      "byteOffset": 348,
      "componentType": 5126,
      "count": 29,
      "max": [
        1.559999942779541
      ],
      "min": [
        0.0
      ],
      "type": "SCALAR"
    },
    {
      "bufferView": 4,
      "byteOffset": 1392,
      "componentType": 5126,
      "count": 29,
      "max": [
        0.13052618503570557,
        0.0,
        0.0,
        1.0
      ],
      "min": [
        -0.13052618503570557,
        0.0,
        0.0,
        0.9914448857307434
      ],
      "type": "VEC4"
    }
  ],
  "animations": [
    {
      "channels": [
        {
          "sampler": 0,
          "target": {
            "node": 12,
            "path": "rotation"
          }
        },
        {
          "sampler": 1,
          "target": {
            "node": 9,
            "path": "rotation"
          }
        },
        {
          "sampler": 2,
          "target": {
            "node": 6,
            "path": "rotation"
          }
        },
        {
          "sampler": 3,
          "target": {
            "node": 3,
            "path": "rotation"
          }
        }
      ],
      "name": "run",
      "samplers": [
        {
          "input": 44,
          "interpolation": "LINEAR",
          "output": 45
        },
        {
          "input": 46,
          "interpolation": "LINEAR",
          "output": 47
        },
        {
          "input": 48,
          "interpolation": "LINEAR",
          "output": 49
        },
        {
          "input": 50,
          "interpolation": "LINEAR",
          "output": 51
        }
      ]
    }
  ],
  "asset": {
    "extras": {
      "author": "trmhtk2 (https://sketchfab.com/trmhtk2)",
      "license": "CC-BY-4.0 (http://creativecommons.org/licenses/by/4.0/)",
      "source": "https://sketchfab.com/3d-models/minecraft-zoglin-3d17dc629d2445cf8ba98475e6c559e8",
      "title": "Minecraft -Zoglin"
    },
    "generator": "Sketchfab-12.66.0",
    "version": "2.0"
  },
  "bufferViews": [
    {
      "buffer": 0,
      "byteLength": 1584,
      "name": "floatBufferViews",
      "target": 34963
    },
    {
      "buffer": 0,
      "byteLength": 2112,
      "byteOffset": 1584,
      "byteStride": 8,
      "name": "floatBufferViews",
      "target": 34962
    },
    {
      "buffer": 0,
      "byteLength": 6336,
      "byteOffset": 3696,
      "byteStride": 12,
      "name": "floatBufferViews",
      "target": 34962
    },
    {
      "buffer": 0,
      "byteLength": 464,
      "byteOffset": 10032,
      "name": "floatBufferViews"
    },
    {
      "buffer": 0,
      "byteLength": 1856,
      "byteOffset": 10496,
      "byteStride": 16,
      "name": "floatBufferViews"
    }
  ],
  "buffers": [
    {
      "byteLength": 12352,
      "uri": "scene.bin"
    }
  ],
  "images": [
    {
      "uri": "textures/material_0_baseColor.png"
    }
  ],
  "materials": [
    {
      "alphaCutoff": 0.05,
      "alphaMode": "MASK",
      "doubleSided": true,
      "name": "material_0",
      "pbrMetallicRoughness": {
        "baseColorTexture": {
          "index": 0
        },
        "metallicFactor": 0.0
      }
    }
  ],
  "meshes": [
    {
      "name": "Object_0",
      "primitives": [
        {
          "attributes": {
            "NORMAL": 1,
            "POSITION": 0,
            "TEXCOORD_0": 2
          },
          "indices": 3,
          "material": 0,
          "mode": 4
        }
      ]
    },
    {
      "name": "Object_1",
      "primitives": [
        {
          "attributes": {
            "NORMAL": 5,
            "POSITION": 4,
            "TEXCOORD_0": 6
          },
          "indices": 7,
          "material": 0,
          "mode": 4
        }
      ]
    },
    {
      "name": "Object_2",
      "primitives": [
        {
          "attributes": {
            "NORMAL": 9,
            "POSITION": 8,
            "TEXCOORD_0": 10
          },
          "indices": 11,
          "material": 0,
          "mode": 4
        }
      ]
    },
    {
      "name": "Object_3",
      "primitives": [
        {
          "attributes": {
            "NORMAL": 13,
            "POSITION": 12,
            "TEXCOORD_0": 14
          },
          "indices": 15,
          "material": 0,
          "mode": 4
        }
      ]
    },
    {
      "name": "Object_4",
      "primitives": [
        {
          "attributes": {
            "NORMAL": 17,
            "POSITION": 16,
            "TEXCOORD_0": 18
          },
          "indices": 19,
          "material": 0,
          "mode": 4
        }
      ]
    },
    {
      "name": "Object_5",
      "primitives": [
        {
          "attributes": {
            "NORMAL": 21,
            "POSITION": 20,
            "TEXCOORD_0": 22
          },
          "indices": 23,
          "material": 0,
          "mode": 4
        }
      ]
    },
    {
      "name": "Object_6",
      "primitives": [
        {
          "attributes": {
            "NORMAL": 25,
            "POSITION": 24,
            "TEXCOORD_0": 26
          },
          "indices": 27,
          "material": 0,
          "mode": 4
        }
      ]
    },
    {
      "name": "Object_7",
      "primitives": [
        {
          "attributes": {
            "NORMAL": 29,
            "POSITION": 28,
            "TEXCOORD_0": 30
          },
          "indices": 31,
          "material": 0,
          "mode": 4
        }
      ]
    },
    {
      "name": "Object_8",
      "primitives": [
        {
          "attributes": {
            "NORMAL": 33,
            "POSITION": 32,
            "TEXCOORD_0": 34
          },
          "indices": 35,
          "material": 0,
          "mode": 4
        }
      ]
    },
    {
      "name": "Object_9",
      "primitives": [
        {
          "attributes": {
            "NORMAL": 37,
            "POSITION": 36,
            "TEXCOORD_0": 38
          },
          "indices": 39,
          "material": 0,
          "mode": 4
        }
      ]
    },
    {
      "name": "Object_10",
      "primitives": [
        {
          "attributes": {
            "NORMAL": 41,
            "POSITION": 40,
            "TEXCOORD_0": 42
          },
          "indices": 43,
          "material": 0,
          "mode": 4
        }
      ]
    }
  ],
  "nodes": [
    {
      "children": [
        1
      ],
      "matrix": [
        1.0,
        0.0,
        0.0,
        0.0,
        0.0,
        2.220446049250313e-16,
        -1.0,
        0.0,
        0.0,
        1.0,
        2.220446049250313e-16,
        0.0,
        0.0,
        0.0,
        0.0,
        1.0
      ],
      "name": "Sketchfab_model"
    },
    {
      "children": [
        2
      ],
      "name": "root"
    },
    {
      "children": [
        3,
        6,
        9,
        12,
        15,
        18,
        21
      ],
      "matrix": [
        1.0,
        0.0,
        0.0,
        0.0,
        0.0,
        2.220446049250313e-16,
        1.0,
        0.0,
        0.0,
        -1.0,
        2.220446049250313e-16,
        0.0,
        0.0,
        0.0,
        0.0,
        1.0
      ],
      "name": "GLTF_SceneRootNode"
    },
    {
      "children": [
        4
      ],
      "name": "back_right_leg_1",
      "translation": [
        -0.28125,
        0.6875,
        0.875
      ]
    },
    {
      "children": [
        5
      ],
      "matrix": [
        1.0,
        0.0,
        0.0,
        0.0,
        0.0,
        1.0,
        0.0,
        0.0,
        0.0,
        0.0,
        1.0,
        0.0,
        0.28125,
        -0.6875,
        -0.875,
        1.0
      ],
      "name": "030ed5e4-7f5b-3802-ae14-b5f9835c28f1_0"
    },
    {
      "mesh": 0,
      "name": "Object_5"
    },
    {
      "children": [
        7
      ],
      "name": "back_left_leg_3",
      "translation": [
        0.28125,
        0.6875,
        0.875
      ]
    },
    {
      "children": [
        8
      ],
      "matrix": [
        1.0,
        0.0,
        0.0,
        0.0,
        0.0,
        1.0,
        0.0,
        0.0,
        0.0,
        0.0,
        1.0,
        0.0,
        -0.28125,
        -0.6875,
        -0.875,
        1.0
      ],
      "name": "752454d7-c171-c866-a7cf-44767d2681e3_2"
    },
    {
      "mesh": 1,
      "name": "Object_8"
    },
    {
      "children": [
        10
      ],
      "name": "front_right_leg_5",
      "translation": [
        -0.25,
        0.875,
        -0.28125
      ]
    },
    {
      "children": [
        11
      ],
      "matrix": [
        1.0,
        0.0,
        0.0,
        0.0,
        0.0,
        1.0,
        0.0,
        0.0,
        0.0,
        0.0,
        1.0,
        0.0,
        0.25,
        -0.875,
        0.28125,
        1.0
      ],
      "name": "9ca94f13-f7b3-c34f-68cb-1ec1f5fb8125_4"
    },
    {
      "mesh": 2,
      "name": "Object_11"
    },
    {
      "children": [
        13
      ],
      "name": "front_left_leg_7",
      "translation": [
        0.25,
        0.875,
        -0.296875
      ]
    },
    {
      "children": [
        14
      ],
      "matrix": [
        1.0,
        0.0,
        0.0,
        0.0,
        0.0,
        1.0,
        0.0,
        0.0,
        0.0,
        0.0,
        1.0,
        0.0,
        -0.25,
        -0.875,
        0.296875,
        1.0
      ],
      "name": "9e39cc85-fc6e-fba6-7f3d-18affa65ca33_6"
    },
    {
      "mesh": 3,
      "name": "Object_14"
    },
    {
      "children": [
        16
      ],
      "matrix": [
        1.0,
        0.0,
        0.0,
        0.0,
        0.0,
        1.0,
        0.0,
        0.0,
        0.0,
        0.0,
        1.0,
        0.0,
        0.0,
        1.9375,
        -0.15625,
        1.0
      ],
      "name": "mane_9"
    },
    {
      "children": [
        17
      ],
      "matrix": [
        1.0,
        0.0,
        0.0,
        0.0,
        0.0,
        1.0,
        0.0,
        0.0,
        0.0,
        0.0,
        1.0,
        0.0,
        0.0,
        -1.9375,
        0.15625,
        1.0
      ],
      "name": "0c0cd695-86ca-b391-c6f5-c6140552f8dd_8"
    },
    {
      "mesh": 4,
      "name": "Object_17"
    },
    {
      "children": [
        19
      ],
      "matrix": [
        1.0,
        0.0,
        0.0,
        0.0,
        0.0,
        1.0,
        0.0,
        0.0,
        0.0,
        0.0,
        1.0,
        0.0,
        0.0,
        1.0625,
        0.28125,
        1.0
      ],
      "name": "body_11"
    },
    {
      "children": [
        20
      ],
      "matrix": [
        1.0,
        0.0,
        0.0,
        0.0,
        0.0,
        1.0,
        0.0,
        0.0,
        0.0,
        0.0,
        1.0,
        0.0,
        0.0,
        -1.0625,
        -0.28125,
        1.0
      ],
      "name": "90edd16d-89cf-dd61-6b56-4e815f7c82b1_10"
    },
    {
      "mesh": 5,
      "name": "Object_20"
    },
    {
      "children": [
        22,
        29,
        34
      ],
      "matrix": [
        1.0,
        0.0,
        0.0,
        0.0,
        0.0,
        1.0,
        0.0,
        0.0,
        0.0,
        0.0,
        1.0,
        0.0,
        0.0,
        1.3125,
        -0.53125,
        1.0
      ],
      "name": "head_24"
    },
    {
      "children": [
        23,
        25,
        27
      ],
      "matrix": [
        1.0,
        0.0,
        -0.0,
        0.0,
        -0.0,
        0.6427876174094396,
        -0.7660444366386953,
        0.0,
        0.0,
        0.7660444366386953,
        0.6427876174094396,
        0.0,
        0.0,
        0.0,
        0.0,
        1.0
      ],
      "name": "head_rotation_15"
    },
    {
      "children": [
        24
      ],
      "matrix": [
        1.0,
        0.0,
        0.0,
        0.0,
        0.0,
        1.0,
        0.0,
        0.0,
        0.0,
        0.0,
        1.0,
        0.0,
        0.0,
        -1.3125,
        0.53125,
        1.0
      ],
      "name": "7d281fa8-b88b-b0cb-4bcc-63831889ebcf_12"
    },
    {
      "mesh": 6,
      "name": "Object_24"
    },
    {
      "children": [
        26
      ],
      "matrix": [
        1.0,
        0.0,
        0.0,
        0.0,
        0.0,
        1.0,
        0.0,
        0.0,
        0.0,
        0.0,
        1.0,
        0.0,
        0.0,
        -1.3125,
        0.53125,
        1.0
      ],
      "name": "1426f502-4816-62c8-a32c-977c2c2c98f6_13"
    },
    {
      "mesh": 7,
      "name": "Object_26"
    },
    {
      "children": [
        28
      ],
      "matrix": [
        1.0,
        0.0,
        0.0,
        0.0,
        0.0,
        1.0,
        0.0,
        0.0,
        0.0,
        0.0,
        1.0,
        0.0,
        0.0,
        -1.3125,
        0.53125,
        1.0
      ],
      "name": "71829228-907d-f966-d46f-c73022d33076_14"
    },
    {
      "mesh": 8,
      "name": "Object_28"
    },
    {
      "children": [
        30
      ],
      "matrix": [
        1.0,
        0.0,
        0.0,
        0.0,
        0.0,
        1.0,
        0.0,
        0.0,
        0.0,
        0.0,
        1.0,
        0.0,
        0.375,
        0.125,
        -0.1875,
        1.0
      ],
      "name": "left_ear_19"
    },
    {
      "children": [
        31
      ],
      "matrix": [
        1.0,
        0.0,
        0.0,
        0.0,
        -0.0,
        0.6427876174094396,
        -0.7660444366386953,
        0.0,
        0.0,
        0.7660444366386953,
        0.6427876174094396,
        0.0,
        -0.34375,
        -0.109375,
        0.1875,
        1.0
      ],
      "name": "left_ear_rotation_18"
    },
    {
      "children": [
        32
      ],
      "matrix": [
        0.7071067739978436,
        0.7071067883752514,
        0.0,
        0.0,
        -0.7071067883752514,
        0.7071067739978436,
        0.0,
        0.0,
        0.0,
        0.0,
        1.0,
        0.0,
        -0.40625,
        0.109375,
        -0.1875,
        1.0
      ],
      "name": "left_ear_rotation2_17"
    },
    {
      "children": [
        33
      ],
      "matrix": [
        1.0,
        0.0,
        0.0,
        0.0,
        0.0,
        1.0,
        0.0,
        0.0,
        0.0,
        0.0,
        1.0,
        0.0,
        0.375,
        -1.4375,
        0.71875,
        1.0
      ],
      "name": "9e08e22a-b4e2-085d-f066-d645ed496a2b_16"
    },
    {
      "mesh": 9,
      "name": "Object_33"
    },
    {
      "children": [
        35
      ],
      "matrix": [
        1.0,
        0.0,
        0.0,
        0.0,
        0.0,
        1.0,
        0.0,
        0.0,
        0.0,
        0.0,
        1.0,
        0.0,
        -0.375,
        0.125,
        -0.1875,
        1.0
      ],
      "name": "right_ear_23"
    },
    {
      "children": [
        36
      ],
      "matrix": [
        1.0,
        0.0,
        0.0,
        0.0,
        0.0,
        0.6427876174094396,
        -0.7660444366386953,
        0.0,
        0.0,
        0.7660444366386953,
        0.6427876174094396,
        0.0,
        0.34375,
        -0.109375,
        0.1875,
        1.0
      ],
      "name": "right_ear_rotation_22"
    },
    {
      "children": [
        37
      ],
      "matrix": [
        0.7071067739978436,
        -0.7071067883752514,
        -0.0,
        0.0,
        0.7071067883752514,
        0.7071067739978436,
        0.0,
        0.0,
        0.0,
        0.0,
        1.0,
        0.0,
        0.40625,
        0.109375,
        -0.1875,
        1.0
      ],
      "name": "right_ear_rotation2_21"
    },
    {
      "children": [
        38
      ],
      "matrix": [
        1.0,
        0.0,
        0.0,
        0.0,
        0.0,
        1.0,
        0.0,
        0.0,
        0.0,
        0.0,
        1.0,
        0.0,
        -0.375,
        -1.4375,
        0.71875,
        1.0
      ],
      "name": "9875eecc-57e9-efed-f47a-7456ca23eaa6_20"
    },
    {
      "mesh": 10,
      "name": "Object_38"
    }
  ],
  "samplers": [
    {
      "magFilter": 9728,
      "minFilter": 9728,
      "wrapS": 33071,
      "wrapT": 33071
    }
  ],
  "scene": 0,
  "scenes": [
    {
      "name": "Sketchfab_Scene",
      "nodes": [
        0
      ]
    }
  ],
  "textures": [
    {
      "sampler": 0,
      "source": 0
    }
  ]
}
