{
  "accessors": [
    {
      "bufferView": 2,
      "componentType": 5126,
      "count": 24,
      "max": [
        1.0,
        1.0,
        1.5
      ],
      "min": [
        0.75,
        -0.25,
        0.0
      ],
      "type": "VEC3"
    },
    {
      "bufferView": 2,
      "byteOffset": 288,
      "componentType": 5126,
      "count": 24,
      "max": [
        1.0,
        1.0,
        1.0
      ],
      "min": [
        -1.0,
        -1.0,
        -1.0
      ],
      "type": "VEC3"
    },
    {
      "bufferView": 1,
      "componentType": 5126,
      "count": 24,
      "max": [
        0.515625,
        0.84375
      ],
      "min": [
        0.28125,
        0.59375
      ],
      "type": "VEC2"
    },
    {
      "bufferView": 0,
      "componentType": 5125,
      "count": 36,
      "type": "SCALAR"
    },
    {
      "bufferView": 2,
      "byteOffset": 576,
      "componentType": 5126,
      "count": 24,
      "max": [
        1.0,
        1.0,
        1.25
      ],
      "min": [
        0.75,
        0.25,
        0.25
      ],
      "type": "VEC3"
    },
    {
      "bufferView": 2,
      "byteOffset": 864,
      "componentType": 5126,
      "count": 24,
      "max": [
        1.0,
        1.0,
        1.0
      ],
      "min": [
        -1.0,
        -1.0,
        -1.0
      ],
      "type": "VEC3"
    },
    {
      "bufferView": 1,
      "byteOffset": 192,
      "componentType": 5126,
      "count": 24,
      "max": [
        0.515625,
        0.59375
      ],
      "min": [
        0.5,
        0.5
      ],
      "type": "VEC2"
    },
    {
      "bufferView": 0,
      "byteOffset": 144,
      "componentType": 5125,
      "count": 36,
      "type": "SCALAR"
    },
    {
      "bufferView": 2,
      "byteOffset": 1152,
      "componentType": 5126,
      "count": 24,
      "max": [
        1.0,
        1.0,
        1.0
      ],
      "min": [
        0.75,
        0.25,
        0.5
      ],
      "type": "VEC3"
    },
    {
      "bufferView": 2,
      "byteOffset": 1440,
      "componentType": 5126,
      "count": 24,
      "max": [
        1.0,
        1.0,
        1.0
      ],
      "min": [
        -1.0,
        -1.0,
        -1.0
      ],
      "type": "VEC3"
    },
    {
      "bufferView": 1,
      "byteOffset": 384,
      "componentType": 5126,
      "count": 24,
      "max": [
        0.125,
        0.484375
      ],
      "min": [
        0.0,
        0.46875
      ],
      "type": "VEC2"
    },
    {
      "bufferView": 0,
      "byteOffset": 288,
      "componentType": 5125,
      "count": 36,
      "type": "SCALAR"
    },
    {
      "bufferView": 2,
      "byteOffset": 1728,
      "componentType": 5126,
      "count": 24,
      "max": [
        1.0,
        1.0,
        1.5
      ],
      "min": [
        0.75,
        -0.25,
        0.0
      ],
      "type": "VEC3"
    },
    {
      "bufferView": 2,
      "byteOffset": 2016,
      "componentType": 5126,
      "count": 24,
      "max": [
        1.0,
        1.0,
        1.0
      ],
      "min": [
        -1.0,
        -1.0,
        -1.0
      ],
      "type": "VEC3"
    },
    {
      "bufferView": 1,
      "byteOffset": 576,
      "componentType": 5126,
      "count": 24,
      "max": [
        0.515625,
        0.84375
      ],
      "min": [
        0.21875,
        0.671875
      ],
      "type": "VEC2"
    },
    {
      "bufferView": 0,
      "byteOffset": 432,
      "componentType": 5125,
      "count": 36,
      "type": "SCALAR"
    },
    {
      "bufferView": 2,
      "byteOffset": 2304,
      "componentType": 5126,
      "count": 24,
      "max": [
        1.0,
        1.0,
        1.25
      ],
      "min": [
        0.75,
        0.25,
        0.25
      ],
      "type": "VEC3"
    },
    {
      "bufferView": 2,
      "byteOffset": 2592,
      "componentType": 5126,
      "count": 24,
      "max": [
        1.0,
        1.0,
        1.0
      ],
      "min": [
        -1.0,
        -1.0,
        -1.0
      ],
      "type": "VEC3"
    },
    {
      "bufferView": 1,
      "byteOffset": 768,
      "componentType": 5126,
      "count": 24,
      "max": [
        0.515625,
        0.71875
      ],
      "min": [
        0.5,
        0.625
      ],
      "type": "VEC2"
    },
    {
      "bufferView": 0,
      "byteOffset": 576,
      "componentType": 5125,
      "count": 36,
      "type": "SCALAR"
    },
    {
      "bufferView": 2,
      "byteOffset": 2880,
      "componentType": 5126,
      "count": 24,
      "max": [
        1.0,
        1.0,
        1.0
      ],
      "min": [
        0.75,
        0.25,
        0.5
      ],
      "type": "VEC3"
    },
    {
      "bufferView": 2,
      "byteOffset": 3168,
      "componentType": 5126,
      "count": 24,
      "max": [
        1.0,
        1.0,
        1.0
      ],
      "min": [
        -1.0,
        -1.0,
        -1.0
      ],
      "type": "VEC3"
    },
    {
      "bufferView": 1,
      "byteOffset": 960,
      "componentType": 5126,
      "count": 24,
      "max": [
        0.515625,
        0.8125
      ],
      "min": [
        0.5,
        0.71875
      ],
      "type": "VEC2"
    },
    {
      "bufferView": 0,
      "byteOffset": 720,
      "componentType": 5125,
      "count": 36,
      "type": "SCALAR"
    },
    {
      "bufferView": 2,
      "byteOffset": 3456,
      "componentType": 5126,
      "count": 24,
      "max": [
        1.0,
        1.0,
        1.0
      ],
      "min": [
        0.25,
        0.0,
        0.0
      ],
      "type": "VEC3"
    },
    {
      "bufferView": 2,
      "byteOffset": 3744,
      "componentType": 5126,
      "count": 24,
      "max": [
        1.0,
        1.0,
        1.0
      ],
      "min": [
        -1.0,
        -1.0,
        -1.0
      ],
      "type": "VEC3"
    },
    {
      "bufferView": 1,
      "byteOffset": 1152,
      "componentType": 5126,
      "count": 24,
      "max": [
        0.3125,
        0.5
      ],
      "min": [
        0.21875,
        0.484375
      ],
      "type": "VEC2"
    },
    {
      "bufferView": 0,
      "byteOffset": 864,
      "componentType": 5125,
      "count": 36,
      "type": "SCALAR"
    },
    {
      "bufferView": 2,
      "byteOffset": 4032,
      "componentType": 5126,
      "count": 24,
      "max": [
        1.0,
        1.0,
        1.0
      ],
      "min": [
        0.25,
        0.0,
        0.0
      ],
      "type": "VEC3"
    },
    {
      "bufferView": 2,
      "byteOffset": 4320,
      "componentType": 5126,
      "count": 24,
      "max": [
        1.0,
        1.0,
        1.0
      ],
      "min": [
        -1.0,
        -1.0,
        -1.0
      ],
      "type": "VEC3"
    },
    {
      "bufferView": 1,
      "byteOffset": 1344,
      "componentType": 5126,
      "count": 24,
      "max": [
        0.515625,
        0.9375
      ],
      "min": [
        0.5,
        0.84375
      ],
      "type": "VEC2"
    },
    {
      "bufferView": 0,
      "byteOffset": 1008,
      "componentType": 5125,
      "count": 36,
      "type": "SCALAR"
    },
    {
      "bufferView": 2,
      "byteOffset": 4608,
      "componentType": 5126,
      "count": 24,
      "max": [
        1.0,
        1.0,
        1.0
      ],
      "min": [
        0.25,
        -0.25,
        -0.25
      ],
      "type": "VEC3"
    },
    {
      "bufferView": 2,
      "byteOffset": 4896,
      "componentType": 5126,
      "count": 24,
      "max": [
        1.0,
        1.0,
        1.0
      ],
      "min": [
        -1.0,
        -1.0,
        -1.0
      ],
      "type": "VEC3"
    },
    {
      "bufferView": 1,
      "byteOffset": 1536,
      "componentType": 5126,
      "count": 24,
      "max": [
        0.515625,
        1.0
      ],
      "min": [
        0.484375,
        0.484375
      ],
      "type": "VEC2"
    },
    {
      "bufferView": 0,
      "byteOffset": 1152,
      "componentType": 5125,
      "count": 36,
      "type": "SCALAR"
    },
    {
      "bufferView": 2,
      "byteOffset": 5184,
      "componentType": 5126,
      "count": 24,
      "max": [
        1.0,
        1.0,
        1.5
      ],
      "min": [
        0.25,
        -0.25,
        0.25
      ],
      "type": "VEC3"
    },
    {
      "bufferView": 2,
      "byteOffset": 5472,
      "componentType": 5126,
      "count": 24,
      "max": [
        1.0,
        1.0,
        1.0
      ],
      "min": [
        -1.0,
        -1.0,
        -1.0
      ],
      "type": "VEC3"
    },
    {
      "bufferView": 1,
      "byteOffset": 1728,
      "componentType": 5126,
      "count": 24,
      "max": [
        0.453125,
        0.5
      ],
      "min": [
        0.3125,
        0.484375
      ],
      "type": "VEC2"
    },
    {
      "bufferView": 0,
      "byteOffset": 1296,
      "componentType": 5125,
      "count": 36,
      "type": "SCALAR"
    },
    {
      "bufferView": 2,
      "byteOffset": 5760,
      "componentType": 5126,
      "count": 24,
      "max": [
        3.0,
        4.0,
        5.75
      ],
      "min": [
        -3.0,
        0.0,
        0.25
      ],
      "type": "VEC3"
    },
    {
      "bufferView": 2,
      "byteOffset": 6048,
      "componentType": 5126,
      "count": 24,
      "max": [
        1.0,
        1.0,
        1.0
      ],
      "min": [
        -1.0,
        -1.0,
        -1.0
      ],
      "type": "VEC3"
    },
    {
      "bufferView": 1,
      "byteOffset": 1920,
      "componentType": 5126,
      "count": 24,
      "max": [
        0.34375,
        0.921875
      ],
      "min": [
        0.0,
        0.640625
      ],
      "type": "VEC2"
    },
    {
      "bufferView": 0,
      "byteOffset": 1440,
      "componentType": 5125,
      "count": 36,
      "type": "SCALAR"
    },
    {
      "bufferView": 2,
      "byteOffset": 6336,
      "componentType": 5126,
      "count": 24,
      "max": [
        3.0,
        1.75,
        2.0
      ],
      "min": [
        -0.5,
        -1.25,
        -2.0
      ],
      "type": "VEC3"
    },
    {
      "bufferView": 2,
      "byteOffset": 6624,
      "componentType": 5126,
      "count": 24,
      "max": [
        1.0,
        1.0,
        1.0
      ],
      "min": [
        -1.0,
        -1.0,
        -1.0
      ],
      "type": "VEC3"
    },
    {
      "bufferView": 1,
      "byteOffset": 2112,
      "componentType": 5126,
      "count": 24,
      "max": [
        0.390625,
        0.921875
      ],
      "min": [
        0.0,
        0.625
      ],
      "type": "VEC2"
    },
    {
      "bufferView": 0,
      "byteOffset": 1584,
      "componentType": 5125,
      "count": 36,
      "type": "SCALAR"
    },
    {
      "bufferView": 2,
      "byteOffset": 6912,
      "componentType": 5126,
      "count": 24,
      "max": [
        8.0,
        3.0,
        3.5
      ],
      "min": [
        0.0,
        -2.0,
        -3.5
      ],
      "type": "VEC3"
    },
    {
      "bufferView": 2,
      "byteOffset": 7200,
      "componentType": 5126,
      "count": 24,
      "max": [
        1.0,
        1.0,
        1.0
      ],
      "min": [
        -1.0,
        -1.0,
        -1.0
      ],
      "type": "VEC3"
    },
    {
      "bufferView": 1,
      "byteOffset": 2304,
      "componentType": 5126,
      "count": 24,
      "max": [
        0.359375,
        1.0
      ],
      "min": [
        0.0,
        0.703125
      ],
      "type": "VEC2"
    },
    {
      "bufferView": 0,
      "byteOffset": 1728,
      "componentType": 5125,
      "count": 36,
      "type": "SCALAR"
    },
    {
      "bufferView": 2,
      "byteOffset": 7488,
      "componentType": 5126,
      "count": 24,
      "max": [
        4.0,
        3.0,
        0.0
      ],
      "min": [
        3.0,
        -1.0,
        -1.0
      ],
      "type": "VEC3"
    },
    {
      "bufferView": 2,
      "byteOffset": 7776,
      "componentType": 5126,
      "count": 24,
      "max": [
        1.0,
        1.0,
        1.0
      ],
      "min": [
        -1.0,
        -1.0,
        -1.0
      ],
      "type": "VEC3"
    },
    {
      "bufferView": 1,
      "byteOffset": 2496,
      "componentType": 5126,
      "count": 24,
      "max": [
        0.484375,
        1.0
      ],
      "min": [
        0.125,
        0.46875
      ],
      "type": "VEC2"
    },
    {
      "bufferView": 0,
      "byteOffset": 1872,
      "componentType": 5125,
      "count": 36,
      "type": "SCALAR"
    },
    {
      "bufferView": 2,
      "byteOffset": 8064,
      "componentType": 5126,
      "count": 24,
      "max": [
        3.75,
        2.75,
        0.0
      ],
      "min": [
        2.75,
        -1.0,
        -1.0
      ],
      "type": "VEC3"
    },
    {
      "bufferView": 2,
      "byteOffset": 8352,
      "componentType": 5126,
      "count": 24,
      "max": [
        1.0,
        1.0,
        1.0
      ],
      "min": [
        -1.0,
        -1.0,
        -1.0
      ],
      "type": "VEC3"
    },
    {
      "bufferView": 1,
      "byteOffset": 2688,
      "componentType": 5126,
      "count": 24,
      "max": [
        0.484375,
        0.8125
      ],
      "min": [
        0.15625,
        0.484375
      ],
      "type": "VEC2"
    },
    {
      "bufferView": 0,
      "byteOffset": 2016,
      "componentType": 5125,
      "count": 36,
      "type": "SCALAR"
    },
    {
      "bufferView": 2,
      "byteOffset": 8640,
      "componentType": 5126,
      "count": 24,
      "max": [
        4.088583946228027,
        4.3176727294921875,
        0.2525579631328583
      ],
      "min": [
        3.238584041595459,
        -0.9323273301124573,
        -0.4974420368671417
      ],
      "type": "VEC3"
    },
    {
      "bufferView": 2,
      "byteOffset": 8928,
      "componentType": 5126,
      "count": 24,
      "max": [
        1.0,
        1.0,
        1.0
      ],
      "min": [
        -1.0,
        -1.0,
        -1.0
      ],
      "type": "VEC3"
    },
    {
      "bufferView": 1,
      "byteOffset": 2880,
      "componentType": 5126,
      "count": 24,
      "max": [
        0.40625,
        0.703125
      ],
      "min": [
        0.0625,
        0.484375
      ],
      "type": "VEC2"
    },
    {
      "bufferView": 0,
      "byteOffset": 2160,
      "componentType": 5125,
      "count": 36,
      "type": "SCALAR"
    },
    {
      "bufferView": 2,
      "byteOffset": 9216,
      "componentType": 5126,
      "count": 24,
      "max": [
        4.0,
        3.0,
        0.0
      ],
      "min": [
        3.0,
        -1.0,
        -1.0
      ],
      "type": "VEC3"
    },
    {
      "bufferView": 2,
      "byteOffset": 9504,
      "componentType": 5126,
      "count": 24,
      "max": [
        1.0,
        1.0,
        1.0
      ],
      "min": [
        -1.0,
        -1.0,
        -1.0
      ],
      "type": "VEC3"
    },
    {
      "bufferView": 1,
      "byteOffset": 3072,
      "componentType": 5126,
      "count": 24,
      "max": [
        0.5,
        0.8125
      ],
      "min": [
        0.453125,
        0.546875
      ],
      "type": "VEC2"
    },
    {
      "bufferView": 0,
      "byteOffset": 2304,
      "componentType": 5125,
      "count": 36,
      "type": "SCALAR"
    },
    {
      "bufferView": 2,
      "byteOffset": 9792,
      "componentType": 5126,
      "count": 24,
      "max": [
        3.75,
        2.75,
        0.0
      ],
      "min": [
        2.75,
        -1.0,
        -1.0
      ],
      "type": "VEC3"
    },
    {
      "bufferView": 2,
      "byteOffset": 10080,
      "componentType": 5126,
      "count": 24,
      "max": [
        1.0,
        1.0,
        1.0
      ],
      "min": [
        -1.0,
        -1.0,
        -1.0
      ],
      "type": "VEC3"
    },
    {
      "bufferView": 1,
      "byteOffset": 3264,
      "componentType": 5126,
      "count": 24,
      "max": [
        0.5,
        0.546875
      ],
      "min": [
        0.0625,
        0.46875
      ],
      "type": "VEC2"
    },
    {
      "bufferView": 0,
      "byteOffset": 2448,
      "componentType": 5125,
      "count": 36,
      "type": "SCALAR"
    },
    {
      "bufferView": 2,
      "byteOffset": 10368,
      "componentType": 5126,
      "count": 24,
      "max": [
        4.088583946228027,
        4.3176727294921875,
        0.2525579631328583
      ],
      "min": [
        3.238584041595459,
        -0.9323273301124573,
        -0.4974420368671417
      ],
      "type": "VEC3"
    },
    {
      "bufferView": 2,
      "byteOffset": 10656,
      "componentType": 5126,
      "count": 24,
      "max": [
        1.0,
        1.0,
        1.0
      ],
      "min": [
        -1.0,
        -1.0,
        -1.0
      ],
      "type": "VEC3"
    },
    {
      "bufferView": 1,
      "byteOffset": 3456,
      "componentType": 5126,
      "count": 24,
      "max": [
        0.390625,
        1.0
      ],
      "min": [
        0.046875,
        0.484375
      ],
      "type": "VEC2"
    },
    {
      "bufferView": 0,
      "byteOffset": 2592,
      "componentType": 5125,
      "count": 36,
      "type": "SCALAR"
    },
    {
      "bufferView": 2,
      "byteOffset": 10944,
      "componentType": 5126,
      "count": 24,
      "max": [
        1.0,
        3.0,
        0.0
      ],
      "min": [
        0.0,
        -1.0,
        -1.0
      ],
      "type": "VEC3"
    },
    {
      "bufferView": 2,
      "byteOffset": 11232,
      "componentType": 5126,
      "count": 24,
      "max": [
        1.0,
        1.0,
        1.0
      ],
      "min": [
        -1.0,
        -1.0,
        -1.0
      ],
      "type": "VEC3"
    },
    {
      "bufferView": 1,
      "byteOffset": 3648,
      "componentType": 5126,
      "count": 24,
      "max": [
        0.5,
        0.671875
      ],
      "min": [
        0.015625,
        0.484375
      ],
      "type": "VEC2"
    },
    {
      "bufferView": 0,
      "byteOffset": 2736,
      "componentType": 5125,
      "count": 36,
      "type": "SCALAR"
    },
    {
      "bufferView": 2,
      "byteOffset": 11520,
      "componentType": 5126,
      "count": 24,
      "max": [
        0.75,
        2.75,
        0.0
      ],
      "min": [
        -0.25,
        -1.0,
        -1.0
      ],
      "type": "VEC3"
    },
    {
      "bufferView": 2,
      "byteOffset": 11808,
      "componentType": 5126,
      "count": 24,
      "max": [
        1.0,
        1.0,
        1.0
      ],
      "min": [
        -1.0,
        -1.0,
        -1.0
      ],
      "type": "VEC3"
    },
    {
      "bufferView": 1,
      "byteOffset": 3840,
      "componentType": 5126,
      "count": 24,
      "max": [
        0.5,
        1.0
      ],
      "min": [
        0.453125,
        0.484375
      ],
      "type": "VEC2"
    },
    {
      "bufferView": 0,
      "byteOffset": 2880,
      "componentType": 5125,
      "count": 36,
      "type": "SCALAR"
    },
    {
      "bufferView": 2,
      "byteOffset": 12096,
      "componentType": 5126,
      "count": 24,
      "max": [
        1.100000023841858,
        4.25,
        0.0
      ],
      "min": [
        0.25,
        -1.0,
        -0.75
      ],
      "type": "VEC3"
    },
    {
      "bufferView": 2,
      "byteOffset": 12384,
      "componentType": 5126,
      "count": 24,
      "max": [
        1.0,
        1.0,
        1.0
      ],
      "min": [
        -1.0,
        -1.0,
        -1.0
      ],
      "type": "VEC3"
    },
    {
      "bufferView": 1,
      "byteOffset": 4032,
      "componentType": 5126,
      "count": 24,
      "max": [
        0.5,
        0.921875
      ],
      "min": [
        0.0,
        0.546875
      ],
      "type": "VEC2"
    },
    {
      "bufferView": 0,
      "byteOffset": 3024,
      "componentType": 5125,
      "count": 36,
      "type": "SCALAR"
    },
    {
      "bufferView": 2,
      "byteOffset": 12672,
      "componentType": 5126,
      "count": 24,
      "max": [
        1.0,
        3.0,
        1.0
      ],
      "min": [
        0.0,
        -1.0,
        0.0
      ],
      "type": "VEC3"
    },
    {
      "bufferView": 2,
      "byteOffset": 12960,
      "componentType": 5126,
      "count": 24,
      "max": [
        1.0,
        1.0,
        1.0
      ],
      "min": [
        -1.0,
        -1.0,
        -1.0
      ],
      "type": "VEC3"
    },
    {
      "bufferView": 1,
      "byteOffset": 4224,
      "componentType": 5126,
      "count": 24,
      "max": [
        0.5,
        1.0
      ],
      "min": [
        0.4375,
        0.734375
      ],
      "type": "VEC2"
    },
    {
      "bufferView": 0,
      "byteOffset": 3168,
      "componentType": 5125,
      "count": 36,
      "type": "SCALAR"
    },
    {
      "bufferView": 2,
      "byteOffset": 13248,
      "componentType": 5126,
      "count": 24,
      "max": [
        0.75,
        2.75,
        1.0
      ],
      "min": [
        -0.25,
        -1.0,
        0.0
      ],
      "type": "VEC3"
    },
    {
      "bufferView": 2,
      "byteOffset": 13536,
      "componentType": 5126,
      "count": 24,
      "max": [
        1.0,
        1.0,
        1.0
      ],
      "min": [
        -1.0,
        -1.0,
        -1.0
      ],
      "type": "VEC3"
    },
    {
      "bufferView": 1,
      "byteOffset": 4416,
      "componentType": 5126,
      "count": 24,
      "max": [
        0.5,
        0.75
      ],
      "min": [
        0.0,
        0.484375
      ],
      "type": "VEC2"
    },
    {
      "bufferView": 0,
      "byteOffset": 3312,
      "componentType": 5125,
      "count": 36,
      "type": "SCALAR"
    },
    {
      "bufferView": 2,
      "byteOffset": 13824,
      "componentType": 5126,
      "count": 24,
      "max": [
        1.100000023841858,
        4.25,
        0.75
      ],
      "min": [
        0.25,
        -1.0,
        0.0
      ],
      "type": "VEC3"
    },
    {
      "bufferView": 2,
      "byteOffset": 14112,
      "componentType": 5126,
      "count": 24,
      "max": [
        1.0,
        1.0,
        1.0
      ],
      "min": [
        -1.0,
        -1.0,
        -1.0
      ],
      "type": "VEC3"
    },
    {
      "bufferView": 1,
      "byteOffset": 4608,
      "componentType": 5126,
      "count": 24,
      "max": [
        0.5,
        1.0
      ],
      "min": [
        0.3125,
        0.5625
      ],
      "type": "VEC2"
    },
    {
      "bufferView": 0,
      "byteOffset": 3456,
      "componentType": 5125,
      "count": 36,
      "type": "SCALAR"
    },
    {
      "bufferView": 2,
      "byteOffset": 14400,
      "componentType": 5126,
      "count": 24,
      "max": [
        1.0,
        3.0,
        0.0
      ],
      "min": [
        0.0,
        -1.0,
        -1.0
      ],
      "type": "VEC3"
    },
    {
      "bufferView": 2,
      "byteOffset": 14688,
      "componentType": 5126,
      "count": 24,
      "max": [
        1.0,
        1.0,
        1.0
      ],
      "min": [
        -1.0,
        -1.0,
        -1.0
      ],
      "type": "VEC3"
    },
    {
      "bufferView": 1,
      "byteOffset": 4800,
      "componentType": 5126,
      "count": 24,
      "max": [
        0.5,
        0.859375
      ],
      "min": [
        0.25,
        0.5
      ],
      "type": "VEC2"
    },
    {
      "bufferView": 0,
      "byteOffset": 3600,
      "componentType": 5125,
      "count": 36,
      "type": "SCALAR"
    },
    {
      "bufferView": 2,
      "byteOffset": 14976,
      "componentType": 5126,
      "count": 24,
      "max": [
        0.75,
        2.75,
        0.0
      ],
      "min": [
        -0.25,
        -1.0,
        -1.0
      ],
      "type": "VEC3"
    },
    {
      "bufferView": 2,
      "byteOffset": 15264,
      "componentType": 5126,
      "count": 24,
      "max": [
        1.0,
        1.0,
        1.0
      ],
      "min": [
        -1.0,
        -1.0,
        -1.0
      ],
      "type": "VEC3"
    },
    {
      "bufferView": 1,
      "byteOffset": 4992,
      "componentType": 5126,
      "count": 24,
      "max": [
        0.5,
        0.828125
      ],
      "min": [
        0.3125,
        0.5
      ],
      "type": "VEC2"
    },
    {
      "bufferView": 0,
      "byteOffset": 3744,
      "componentType": 5125,
      "count": 36,
      "type": "SCALAR"
    },
    {
      "bufferView": 2,
      "byteOffset": 15552,
      "componentType": 5126,
      "count": 24,
      "max": [
        1.100000023841858,
        4.0,
        0.0
      ],
      "min": [
        0.25,
        -1.0,
        -0.75
      ],
      "type": "VEC3"
    },
    {
      "bufferView": 2,
      "byteOffset": 15840,
      "componentType": 5126,
      "count": 24,
      "max": [
        1.0,
        1.0,
        1.0
      ],
      "min": [
        -1.0,
        -1.0,
        -1.0
      ],
      "type": "VEC3"
    },
    {
      "bufferView": 1,
      "byteOffset": 5184,
      "componentType": 5126,
      "count": 24,
      "max": [
        0.5,
        0.796875
      ],
      "min": [
        0.25,
        0.5625
      ],
      "type": "VEC2"
    },
    {
      "bufferView": 0,
      "byteOffset": 3888,
      "componentType": 5125,
      "count": 36,
      "type": "SCALAR"
    },
    {
      "bufferView": 2,
      "byteOffset": 16128,
      "componentType": 5126,
      "count": 24,
      "max": [
        4.0,
        3.0,
        1.0
      ],
      "min": [
        3.0,
        -1.0,
        0.0
      ],
      "type": "VEC3"
    },
    {
      "bufferView": 2,
      "byteOffset": 16416,
      "componentType": 5126,
      "count": 24,
      "max": [
        1.0,
        1.0,
        1.0
      ],
      "min": [
        -1.0,
        -1.0,
        -1.0
      ],
      "type": "VEC3"
    },
    {
      "bufferView": 1,
      "byteOffset": 5376,
      "componentType": 5126,
      "count": 24,
      "max": [
        0.5,
        0.953125
      ],
      "min": [
        0.125,
        0.5
      ],
      "type": "VEC2"
    },
    {
      "bufferView": 0,
      "byteOffset": 4032,
      "componentType": 5125,
      "count": 36,
      "type": "SCALAR"
    },
    {
      "bufferView": 2,
      "byteOffset": 16704,
      "componentType": 5126,
      "count": 24,
      "max": [
        3.75,
        2.75,
        1.0
      ],
      "min": [
        2.75,
        -1.0,
        0.0
      ],
      "type": "VEC3"
    },
    {
      "bufferView": 2,
      "byteOffset": 16992,
      "componentType": 5126,
      "count": 24,
      "max": [
        1.0,
        1.0,
        1.0
      ],
      "min": [
        -1.0,
        -1.0,
        -1.0
      ],
      "type": "VEC3"
    },
    {
      "bufferView": 1,
      "byteOffset": 5568,
      "componentType": 5126,
      "count": 24,
      "max": [
        0.5,
        0.921875
      ],
      "min": [
        0.1875,
        0.5
      ],
      "type": "VEC2"
    },
    {
      "bufferView": 0,
      "byteOffset": 4176,
      "componentType": 5125,
      "count": 36,
      "type": "SCALAR"
    },
    {
      "bufferView": 2,
      "byteOffset": 17280,
      "componentType": 5126,
      "count": 24,
      "max": [
        4.088583946228027,
        4.3176727294921875,
        0.4974420368671417
      ],
      "min": [
        3.238584041595459,
        -0.9323273301124573,
        -0.2525579631328583
      ],
      "type": "VEC3"
    },
    {
      "bufferView": 2,
      "byteOffset": 17568,
      "componentType": 5126,
      "count": 24,
      "max": [
        1.0,
        1.0,
        1.0
      ],
      "min": [
        -1.0,
        -1.0,
        -1.0
      ],
      "type": "VEC3"
    },
    {
      "bufferView": 1,
      "byteOffset": 5760,
      "componentType": 5126,
      "count": 24,
      "max": [
        0.5,
        0.890625
      ],
      "min": [
        0.1875,
        0.5625
      ],
      "type": "VEC2"
    },
    {
      "bufferView": 0,
      "byteOffset": 4320,
      "componentType": 5125,
      "count": 36,
      "type": "SCALAR"
    },
    {
      "bufferView": 2,
      "byteOffset": 17856,
      "componentType": 5126,
      "count": 24,
      "max": [
        4.0,
        3.0,
        1.0
      ],
      "min": [
        3.0,
        -1.0,
        0.0
      ],
      "type": "VEC3"
    },
    {
      "bufferView": 2,
      "byteOffset": 18144,
      "componentType": 5126,
      "count": 24,
      "max": [
        1.0,
        1.0,
        1.0
      ],
      "min": [
        -1.0,
        -1.0,
        -1.0
      ],
      "type": "VEC3"
    },
    {
      "bufferView": 1,
      "byteOffset": 5952,
      "componentType": 5126,
      "count": 24,
      "max": [
        0.4375,
        1.0
      ],
      "min": [
        0.34375,
        0.5
      ],
      "type": "VEC2"
    },
    {
      "bufferView": 0,
      "byteOffset": 4464,
      "componentType": 5125,
      "count": 36,
      "type": "SCALAR"
    },
    {
      "bufferView": 2,
      "byteOffset": 18432,
      "componentType": 5126,
      "count": 24,
      "max": [
        3.75,
        2.75,
        1.0
      ],
      "min": [
        2.75,
        -1.0,
        0.0
      ],
      "type": "VEC3"
    },
    {
      "bufferView": 2,
      "byteOffset": 18720,
      "componentType": 5126,
      "count": 24,
      "max": [
        1.0,
        1.0,
        1.0
      ],
      "min": [
        -1.0,
        -1.0,
        -1.0
      ],
      "type": "VEC3"
    },
    {
      "bufferView": 1,
      "byteOffset": 6144,
      "componentType": 5126,
      "count": 24,
      "max": [
        0.5,
        1.0
      ],
      "min": [
        0.09375,
        0.5
      ],
      "type": "VEC2"
    },
    {
      "bufferView": 0,
      "byteOffset": 4608,
      "componentType": 5125,
      "count": 36,
      "type": "SCALAR"
    },
    {
      "bufferView": 2,
      "byteOffset": 19008,
      "componentType": 5126,
      "count": 24,
      "max": [
        4.088583946228027,
        4.3176727294921875,
        0.4974420368671417
      ],
      "min": [
        3.238584041595459,
        -0.9323273301124573,
        -0.2525579631328583
      ],
      "type": "VEC3"
    },
    {
      "bufferView": 2,
      "byteOffset": 19296,
      "componentType": 5126,
      "count": 24,
      "max": [
        1.0,
        1.0,
        1.0
      ],
      "min": [
        -1.0,
        -1.0,
        -1.0
      ],
      "type": "VEC3"
    },
    {
      "bufferView": 1,
      "byteOffset": 6336,
      "componentType": 5126,
      "count": 24,
      "max": [
        0.5,
        0.984375
      ],
      "min": [
        0.125,
        0.5625
      ],
      "type": "VEC2"
    },
    {
      "bufferView": 0,
      "byteOffset": 4752,
      "componentType": 5125,
      "count": 36,
      "type": "SCALAR"
    },
    {
      "bufferView": 2,
      "byteOffset": 19584,
      "componentType": 5126,
      "count": 24,
      "max": [
        1.0,
        3.0,
        1.0
      ],
      "min": [
        0.0,
        -1.0,
        0.0
      ],
      "type": "VEC3"
    },
    {
      "bufferView": 2,
      "byteOffset": 19872,
      "componentType": 5126,
      "count": 24,
      "max": [
        1.0,
        1.0,
        1.0
      ],
      "min": [
        -1.0,
        -1.0,
        -1.0
      ],
      "type": "VEC3"
    },
    {
      "bufferView": 1,
      "byteOffset": 6528,
      "componentType": 5126,
      "count": 24,
      "max": [
        0.40625,
        1.0
      ],
      "min": [
        0.3125,
        0.640625
      ],
      "type": "VEC2"
    },
    {
      "bufferView": 0,
      "byteOffset": 4896,
      "componentType": 5125,
      "count": 36,
      "type": "SCALAR"
    },
    {
      "bufferView": 2,
      "byteOffset": 20160,
      "componentType": 5126,
      "count": 24,
      "max": [
        0.75,
        2.75,
        1.0
      ],
      "min": [
        -0.25,
        -1.0,
        0.0
      ],
      "type": "VEC3"
    },
    {
      "bufferView": 2,
      "byteOffset": 20448,
      "componentType": 5126,
      "count": 24,
      "max": [
        1.0,
        1.0,
        1.0
      ],
      "min": [
        -1.0,
        -1.0,
        -1.0
      ],
      "type": "VEC3"
    },
    {
      "bufferView": 1,
      "byteOffset": 6720,
      "componentType": 5126,
      "count": 24,
      "max": [
        0.421875,
        0.8125
      ],
      "min": [
        0.375,
        0.53125
      ],
      "type": "VEC2"
    },
    {
      "bufferView": 0,
      "byteOffset": 5040,
      "componentType": 5125,
      "count": 36,
      "type": "SCALAR"
    },
    {
      "bufferView": 2,
      "byteOffset": 20736,
      "componentType": 5126,
      "count": 24,
      "max": [
        1.100000023841858,
        4.0,
        0.75
      ],
      "min": [
        0.25,
        -1.0,
        0.0
      ],
      "type": "VEC3"
    },
    {
      "bufferView": 2,
      "byteOffset": 21024,
      "componentType": 5126,
      "count": 24,
      "max": [
        1.0,
        1.0,
        1.0
      ],
      "min": [
        -1.0,
        -1.0,
        -1.0
      ],
      "type": "VEC3"
    },
    {
      "bufferView": 1,
      "byteOffset": 6912,
      "componentType": 5126,
      "count": 24,
      "max": [
        0.421875,
        0.78125
      ],
      "min": [
        0.0625,
        0.59375
      ],
      "type": "VEC2"
    },
    {
      "bufferView": 0,
      "byteOffset": 5184,
      "componentType": 5125,
      "count": 36,
      "type": "SCALAR"
    }
  ],
  "asset": {
    "extras": {
      "author": "YourPalPika (https://sketchfab.com/YourPalPika)",
      "license": "CC-BY-4.0 (http://creativecommons.org/licenses/by/4.0/)",
      "source": "https://sketchfab.com/3d-models/minecraft-spider-ead9c95d73494e5bb3d61fecea92c033",
      "title": "Minecraft Spider"
    },
    "generator": "Sketchfab-12.66.0",
    "version": "2.0"
  },
  "bufferViews": [
    {
      "buffer": 0,
      "byteLength": 5328,
      "name": "floatBufferViews",
      "target": 34963
    },
    {
      "buffer": 0,
      "byteLength": 7104,
      "byteOffset": 5328,
      "byteStride": 8,
      "name": "floatBufferViews",
      "target": 34962
    },
    {
      "buffer": 0,
      "byteLength": 21312,
      "byteOffset": 12432,
      "byteStride": 12,
      "name": "floatBufferViews",
      "target": 34962
    }
  ],
  "buffers": [
    {
      "byteLength": 33744,
      "uri": "scene.bin"
    }
  ],
  "images": [
    {
      "uri": "textures/spider_texture_baseColor.png"
    }
  ],
  "materials": [
    {
      "alphaCutoff": 0.2,
      "alphaMode": "MASK",
      "doubleSided": true,
      "name": "spider_texture",
      "pbrMetallicRoughness": {
        "baseColorTexture": {
          "index": 0
        },
        "metallicFactor": 0.0,
        "roughnessFactor": 0.6
      }
    }
  ],
  "meshes": [
    {
      "name": "Object_0",
      "primitives": [
        {
          "attributes": {
            "NORMAL": 1,
            "POSITION": 0,
            "TEXCOORD_0": 2
          },
          "indices": 3,
          "material": 0,
          "mode": 4
        }
      ]
    },
    {
      "name": "Object_1",
      "primitives": [
        {
          "attributes": {
            "NORMAL": 5,
            "POSITION": 4,
            "TEXCOORD_0": 6
          },
          "indices": 7,
          "material": 0,
          "mode": 4
        }
      ]
    },
    {
      "name": "Object_2",
      "primitives": [
        {
          "attributes": {
            "NORMAL": 9,
            "POSITION": 8,
            "TEXCOORD_0": 10
          },
          "indices": 11,
          "material": 0,
          "mode": 4
        }
      ]
    },
    {
      "name": "Object_3",
      "primitives": [
        {
          "attributes": {
            "NORMAL": 13,
            "POSITION": 12,
            "TEXCOORD_0": 14
          },
          "indices": 15,
          "material": 0,
          "mode": 4
        }
      ]
    },
    {
      "name": "Object_4",
      "primitives": [
        {
          "attributes": {
            "NORMAL": 17,
            "POSITION": 16,
            "TEXCOORD_0": 18
          },
          "indices": 19,
          "material": 0,
          "mode": 4
        }
      ]
    },
    {
      "name": "Object_5",
      "primitives": [
        {
          "attributes": {
            "NORMAL": 21,
            "POSITION": 20,
            "TEXCOORD_0": 22
          },
          "indices": 23,
          "material": 0,
          "mode": 4
        }
      ]
    },
    {
      "name": "Object_6",
      "primitives": [
        {
          "attributes": {
            "NORMAL": 25,
            "POSITION": 24,
            "TEXCOORD_0": 26
          },
          "indices": 27,
          "material": 0,
          "mode": 4
        }
      ]
    },
    {
      "name": "Object_7",
      "primitives": [
        {
          "attributes": {
            "NORMAL": 29,
            "POSITION": 28,
            "TEXCOORD_0": 30
          },
          "indices": 31,
          "material": 0,
          "mode": 4
        }
      ]
    },
    {
      "name": "Object_8",
      "primitives": [
        {
          "attributes": {
            "NORMAL": 33,
            "POSITION": 32,
            "TEXCOORD_0": 34
          },
          "indices": 35,
          "material": 0,
          "mode": 4
        }
      ]
    },
    {
      "name": "Object_9",
      "primitives": [
        {
          "attributes": {
            "NORMAL": 37,
            "POSITION": 36,
            "TEXCOORD_0": 38
          },
          "indices": 39,
          "material": 0,
          "mode": 4
        }
      ]
    },
    {
      "name": "Object_10",
      "primitives": [
        {
          "attributes": {
            "NORMAL": 41,
            "POSITION": 40,
            "TEXCOORD_0": 42
          },
          "indices": 43,
          "material": 0,
          "mode": 4
        }
      ]
    },
    {
      "name": "Object_11",
      "primitives": [
        {
          "attributes": {
            "NORMAL": 45,
            "POSITION": 44,
            "TEXCOORD_0": 46
          },
          "indices": 47,
          "material": 0,
          "mode": 4
        }
      ]
    },
    {
      "name": "Object_12",
      "primitives": [
        {
          "attributes": {
            "NORMAL": 49,
            "POSITION": 48,
            "TEXCOORD_0": 50
          },
          "indices": 51,
          "material": 0,
          "mode": 4
        }
      ]
    },
    {
      "name": "Object_13",
      "primitives": [
        {
          "attributes": {
            "NORMAL": 53,
            "POSITION": 52,
            "TEXCOORD_0": 54
          },
          "indices": 55,
          "material": 0,
          "mode": 4
        }
      ]
    },
    {
      "name": "Object_14",
      "primitives": [
        {
          "attributes": {
            "NORMAL": 57,
            "POSITION": 56,
            "TEXCOORD_0": 58
          },
          "indices": 59,
          "material": 0,
          "mode": 4
        }
      ]
    },
    {
      "name": "Object_15",
      "primitives": [
        {
          "attributes": {
            "NORMAL": 61,
            "POSITION": 60,
            "TEXCOORD_0": 62
          },
          "indices": 63,
          "material": 0,
          "mode": 4
        }
      ]
    },
    {
      "name": "Object_16",
      "primitives": [
        {
          "attributes": {
            "NORMAL": 65,
            "POSITION": 64,
            "TEXCOORD_0": 66
          },
          "indices": 67,
          "material": 0,
          "mode": 4
        }
      ]
    },
    {
      "name": "Object_17",
      "primitives": [
        {
          "attributes": {
            "NORMAL": 69,
            "POSITION": 68,
            "TEXCOORD_0": 70
          },
          "indices": 71,
          "material": 0,
          "mode": 4
        }
      ]
    },
    {
      "name": "Object_18",
      "primitives": [
        {
          "attributes": {
            "NORMAL": 73,
            "POSITION": 72,
            "TEXCOORD_0": 74
          },
          "indices": 75,
          "material": 0,
          "mode": 4
        }
      ]
    },
    {
      "name": "Object_19",
      "primitives": [
        {
          "attributes": {
            "NORMAL": 77,
            "POSITION": 76,
            "TEXCOORD_0": 78
          },
          "indices": 79,
          "material": 0,
          "mode": 4
        }
      ]
    },
    {
      "name": "Object_20",
      "primitives": [
        {
          "attributes": {
            "NORMAL": 81,
            "POSITION": 80,
            "TEXCOORD_0": 82
          },
          "indices": 83,
          "material": 0,
          "mode": 4
        }
      ]
    },
    {
      "name": "Object_21",
      "primitives": [
        {
          "attributes": {
            "NORMAL": 85,
            "POSITION": 84,
            "TEXCOORD_0": 86
          },
          "indices": 87,
          "material": 0,
          "mode": 4
        }
      ]
    },
    {
      "name": "Object_22",
      "primitives": [
        {
          "attributes": {
            "NORMAL": 89,
            "POSITION": 88,
            "TEXCOORD_0": 90
          },
          "indices": 91,
          "material": 0,
          "mode": 4
        }
      ]
    },
    {
      "name": "Object_23",
      "primitives": [
        {
          "attributes": {
            "NORMAL": 93,
            "POSITION": 92,
            "TEXCOORD_0": 94
          },
          "indices": 95,
          "material": 0,
          "mode": 4
        }
      ]
    },
    {
      "name": "Object_24",
      "primitives": [
        {
          "attributes": {
            "NORMAL": 97,
            "POSITION": 96,
            "TEXCOORD_0": 98
          },
          "indices": 99,
          "material": 0,
          "mode": 4
        }
      ]
    },
    {
      "name": "Object_25",
      "primitives": [
        {
          "attributes": {
            "NORMAL": 101,
            "POSITION": 100,
            "TEXCOORD_0": 102
          },
          "indices": 103,
          "material": 0,
          "mode": 4
        }
      ]
    },
    {
      "name": "Object_26",
      "primitives": [
        {
          "attributes": {
            "NORMAL": 105,
            "POSITION": 104,
            "TEXCOORD_0": 106
          },
          "indices": 107,
          "material": 0,
          "mode": 4
        }
      ]
    },
    {
      "name": "Object_27",
      "primitives": [
        {
          "attributes": {
            "NORMAL": 109,
            "POSITION": 108,
            "TEXCOORD_0": 110
          },
          "indices": 111,
          "material": 0,
          "mode": 4
        }
      ]
    },
    {
      "name": "Object_28",
      "primitives": [
        {
          "attributes": {
            "NORMAL": 113,
            "POSITION": 112,
            "TEXCOORD_0": 114
          },
          "indices": 115,
          "material": 0,
          "mode": 4
        }
      ]
    },
    {
      "name": "Object_29",
      "primitives": [
        {
          "attributes": {
            "NORMAL": 117,
            "POSITION": 116,
            "TEXCOORD_0": 118
          },
          "indices": 119,
          "material": 0,
          "mode": 4
        }
      ]
    },
    {
      "name": "Object_30",
      "primitives": [
        {
          "attributes": {
            "NORMAL": 121,
            "POSITION": 120,
            "TEXCOORD_0": 122
          },
          "indices": 123,
          "material": 0,
          "mode": 4
        }
      ]
    },
    {
      "name": "Object_31",
      "primitives": [
        {
          "attributes": {
            "NORMAL": 125,
            "POSITION": 124,
            "TEXCOORD_0": 126
          },
          "indices": 127,
          "material": 0,
          "mode": 4
        }
      ]
    },
    {
      "name": "Object_32",
      "primitives": [
        {
          "attributes": {
            "NORMAL": 129,
            "POSITION": 128,
            "TEXCOORD_0": 130
          },
          "indices": 131,
          "material": 0,
          "mode": 4
        }
      ]
    },
    {
      "name": "Object_33",
      "primitives": [
        {
          "attributes": {
            "NORMAL": 133,
            "POSITION": 132,
            "TEXCOORD_0": 134
          },
          "indices": 135,
          "material": 0,
          "mode": 4
        }
      ]
    },
    {
      "name": "Object_34",
      "primitives": [
        {
          "attributes": {
            "NORMAL": 137,
            "POSITION": 136,
            "TEXCOORD_0": 138
          },
          "indices": 139,
          "material": 0,
          "mode": 4
        }
      ]
    },
    {
      "name": "Object_35",
      "primitives": [
        {
          "attributes": {
            "NORMAL": 141,
            "POSITION": 140,
            "TEXCOORD_0": 142
          },
          "indices": 143,
          "material": 0,
          "mode": 4
        }
      ]
    },
    {
      "name": "Object_36",
      "primitives": [
        {
          "attributes": {
            "NORMAL": 145,
            "POSITION": 144,
            "TEXCOORD_0": 146
          },
          "indices": 147,
          "material": 0,
          "mode": 4
        }
      ]
    }
  ],
  "nodes": [
    {
      "children": [
        1
      ],
      "matrix": [
        1.0,
        0.0,
        0.0,
        0.0,
        0.0,
        2.220446049250313e-16,
        -1.0,
        0.0,
        0.0,
        1.0,
        2.220446049250313e-16,
        0.0,
        0.0,
        0.0,
        0.0,
        1.0
      ],
      "name": "Sketchfab_model"
    },
    {
      "children": [
        2
      ],
      "name": "root"
    },
    {
      "children": [
        3,
        10,
        17,
        26,
        33,
        40,
        47,
        54,
        61,
        68,
        75,
        82
      ],
      "matrix": [
        1.0,
        0.0,
        0.0,
        0.0,
        0.0,
        2.220446049250313e-16,
        1.0,
        0.0,
        0.0,
        -1.0,
        2.220446049250313e-16,
        0.0,
        0.0,
        0.0,
        0.0,
        1.0
      ],
      "name": "GLTF_SceneRootNode"
    },
    {
      "children": [
        4,
        6,
        8
      ],
      "matrix": [
        1.0,
        0.0,
        0.0,
        0.0,
        0.0,
        1.0,
        0.0,
        0.0,
        0.0,
        0.0,
        1.0,
        0.0,
        -9.0,
        3.75,
        0.25,
        1.0
      ],
      "name": "fang2_3"
    },
    {
      "children": [
        5
      ],
      "matrix": [
        0.996194698268239,
        0.08715574073032864,
        0.0,
        0.0,
        -0.08715574073032864,
        0.996194698268239,
        0.0,
        0.0,
        0.0,
        0.0,
        1.0,
        0.0,
        0.0,
        0.0,
        0.0,
        1.0
      ],
      "name": "5d98f5a8-49e5-e492-64d2-301d0ad6d6d6_0"
    },
    {
      "mesh": 0,
      "name": "Object_5"
    },
    {
      "children": [
        7
      ],
      "matrix": [
        0.9063077824085229,
        0.42261827166574967,
        0.0,
        0.0,
        -0.42261827166574967,
        0.9063077824085229,
        0.0,
        0.0,
        0.0,
        0.0,
        1.0,
        0.0,
        0.5,
        -1.25,
        0.0,
        1.0
      ],
      "name": "51f9b05e-3783-bd9b-73cf-4c059182df74_1"
    },
    {
      "mesh": 1,
      "name": "Object_7"
    },
    {
      "children": [
        9
      ],
      "matrix": [
        0.08715571824013701,
        0.9961947002358755,
        0.0,
        0.0,
        -0.9961947002358755,
        0.08715571824013701,
        0.0,
        0.0,
        0.0,
        0.0,
        1.0,
        0.0,
        2.0,
        -1.5,
        0.0,
        1.0
      ],
      "name": "813b5614-9caa-05a6-ccd1-813596727a80_2"
    },
    {
      "mesh": 2,
      "name": "Object_9"
    },
    {
      "children": [
        11,
        13,
        15
      ],
      "matrix": [
        1.0,
        0.0,
        0.0,
        0.0,
        0.0,
        1.0,
        0.0,
        0.0,
        0.0,
        0.0,
        1.0,
        0.0,
        -9.0,
        3.75,
        -1.75,
        1.0
      ],
      "name": "bone_7"
    },
    {
      "children": [
        12
      ],
      "matrix": [
        0.996194698268239,
        0.08715574073032864,
        0.0,
        0.0,
        -0.08715574073032864,
        0.996194698268239,
        0.0,
        0.0,
        0.0,
        0.0,
        1.0,
        0.0,
        0.0,
        0.0,
        0.0,
        1.0
      ],
      "name": "1a0c0d5b-4302-51eb-0c3d-79f5fe874844_4"
    },
    {
      "mesh": 3,
      "name": "Object_12"
    },
    {
      "children": [
        14
      ],
      "matrix": [
        0.9063077824085229,
        0.42261827166574967,
        0.0,
        0.0,
        -0.42261827166574967,
        0.9063077824085229,
        0.0,
        0.0,
        0.0,
        0.0,
        1.0,
        0.0,
        0.5,
        -1.25,
        0.0,
        1.0
      ],
      "name": "e778b52d-8f6d-3da3-f836-2847daa10f2e_5"
    },
    {
      "mesh": 4,
      "name": "Object_14"
    },
    {
      "children": [
        16
      ],
      "matrix": [
        0.08715571824013701,
        0.9961947002358755,
        0.0,
        0.0,
        -0.9961947002358755,
        0.08715571824013701,
        0.0,
        0.0,
        0.0,
        0.0,
        1.0,
        0.0,
        2.0,
        -1.5,
        0.0,
        1.0
      ],
      "name": "21f404cd-0577-fcc7-10a6-0d8f2025be42_6"
    },
    {
      "mesh": 5,
      "name": "Object_16"
    },
    {
      "children": [
        18,
        20,
        22,
        24
      ],
      "matrix": [
        1.0,
        0.0,
        0.0,
        0.0,
        0.0,
        1.0,
        0.0,
        0.0,
        0.0,
        0.0,
        1.0,
        0.0,
        -9.0,
        6.5,
        1.5,
        1.0
      ],
      "name": "bone_12"
    },
    {
      "children": [
        19
      ],
      "matrix": [
        0.996194698268239,
        0.08715574073032864,
        0.0,
        0.0,
        -0.08715574073032864,
        0.996194698268239,
        0.0,
        0.0,
        0.0,
        0.0,
        1.0,
        0.0,
        0.0,
        0.0,
        -0.25,
        1.0
      ],
      "name": "953cb7a0-6074-01ee-6995-ab553bd844ef_8"
    },
    {
      "mesh": 6,
      "name": "Object_19"
    },
    {
      "children": [
        21
      ],
      "matrix": [
        0.996194698268239,
        0.08715574073032864,
        0.0,
        0.0,
        -0.08715574073032864,
        0.996194698268239,
        0.0,
        0.0,
        0.0,
        0.0,
        1.0,
        0.0,
        0.0,
        0.0,
        -3.75,
        1.0
      ],
      "name": "deab7735-fc7f-c5aa-8bf6-64ae411e0fc8_9"
    },
    {
      "mesh": 7,
      "name": "Object_21"
    },
    {
      "children": [
        23
      ],
      "matrix": [
        0.996194698268239,
        0.08715574073032864,
        0.0,
        0.0,
        -0.08715574073032864,
        0.996194698268239,
        0.0,
        0.0,
        0.0,
        0.0,
        1.0,
        0.0,
        0.0,
        -1.25,
        -2.75,
        1.0
      ],
      "name": "fd6dbb7d-58b7-b863-038a-46d66374f0c2_10"
    },
    {
      "mesh": 8,
      "name": "Object_23"
    },
    {
      "children": [
        25
      ],
      "matrix": [
        0.996194698268239,
        0.08715574073032864,
        0.0,
        0.0,
        -0.08715574073032864,
        0.996194698268239,
        0.0,
        0.0,
        0.0,
        0.0,
        1.0,
        0.0,
        0.0,
        -1.25,
        -1.5,
        1.0
      ],
      "name": "98247ca9-afd6-2e79-34b1-a19adbe77f96_11"
    },
    {
      "mesh": 9,
      "name": "Object_25"
    },
    {
      "children": [
        27,
        29,
        31
      ],
      "matrix": [
        1.0,
        0.0,
        0.0,
        0.0,
        0.0,
        1.0,
        0.0,
        0.0,
        0.0,
        0.0,
        1.0,
        0.0,
        -5.0,
        4.0,
        -3.0,
        1.0
      ],
      "name": "bone_16"
    },
    {
      "children": [
        28
      ],
      "matrix": [
        0.996194698268239,
        0.08715574073032864,
        0.0,
        0.0,
        -0.08715574073032864,
        0.996194698268239,
        0.0,
        0.0,
        0.0,
        0.0,
        1.0,
        0.0,
        0.0,
        0.0,
        0.0,
        1.0
      ],
      "name": "91aa898b-9243-d007-b8a5-86efd782f99a_13"
    },
    {
      "mesh": 10,
      "name": "Object_28"
    },
    {
      "children": [
        30
      ],
      "matrix": [
        1.0,
        0.0,
        0.0,
        0.0,
        0.0,
        1.0,
        0.0,
        0.0,
        0.0,
        0.0,
        1.0,
        0.0,
        3.0,
        2.0,
        3.0,
        1.0
      ],
      "name": "2c04bb29-198a-46ba-1e5b-9e828de74b41_14"
    },
    {
      "mesh": 11,
      "name": "Object_30"
    },
    {
      "children": [
        32
      ],
      "matrix": [
        0.9848077531002406,
        0.173648177167673,
        0.0,
        0.0,
        -0.173648177167673,
        0.9848077531002406,
        0.0,
        0.0,
        0.0,
        0.0,
        1.0,
        0.0,
        5.0,
        2.0,
        3.0,
        1.0
      ],
      "name": "cba7d950-df87-2cb1-4e65-1069e7c15901_15"
    },
    {
      "mesh": 12,
      "name": "Object_32"
    },
    {
      "children": [
        34,
        36,
        38
      ],
      "matrix": [
        0.8660254016890687,
        0.0,
        0.5000000036292872,
        0.0,
        -0.0,
        1.0,
        0.0,
        0.0,
        -0.5000000036292872,
        0.0,
        0.8660254016890687,
        0.0,
        -1.0,
        6.25,
        -5.0,
        1.0
      ],
      "name": "spiderleg9_20"
    },
    {
      "children": [
        35
      ],
      "matrix": [
        0.9396926181366871,
        2.1288428520005453e-09,
        -0.34202015060434404,
        0.0,
        -0.28016650335262216,
        0.5735764503409386,
        -0.7697511195272496,
        0.0,
        0.1961747022900337,
        0.8191520344931634,
        0.5389855569188545,
        0.0,
        2.0,
        0.0,
        0.0,
        1.0
      ],
      "name": "d23df679-4411-df38-e7b5-3e7d78d7405a_17"
    },
    {
      "mesh": 13,
      "name": "Object_35"
    },
    {
      "children": [
        37
      ],
      "matrix": [
        0.9396926192026688,
        -2.3318344199996233e-09,
        -0.3420201476755838,
        0.0,
        0.1961746985977099,
        0.819152045642733,
        0.5389855413175976,
        0.0,
        0.2801665023626591,
        -0.5735764344177033,
        0.7697511317526907,
        0.0,
        1.135109782218933,
        -1.1055152416229248,
        -3.10721755027771,
        1.0
      ],
      "name": "e5119c5d-0bd4-f4df-c43a-ffdff3508563_18"
    },
    {
      "mesh": 14,
      "name": "Object_37"
    },
    {
      "children": [
        39
      ],
      "matrix": [
        0.9659258262458409,
        1.16230493285574e-09,
        -0.2588190452638476,
        0.0,
        -0.0669872971068443,
        -0.965925826245841,
        -0.25000000043521786,
        0.0,
        -0.25000000043521786,
        0.2588190452638476,
        -0.9330127017308509,
        0.0,
        0.25,
        -2.25,
        -4.5,
        1.0
      ],
      "name": "31831745-3a83-ea93-0601-3cbfb9c3996c_19"
    },
    {
      "mesh": 15,
      "name": "Object_39"
    },
    {
      "children": [
        41,
        43,
        45
      ],
      "matrix": [
        0.9396926174059803,
        0.0,
        0.34202015261194463,
        0.0,
        -0.0,
        1.0,
        0.0,
        0.0,
        -0.34202015261194463,
        0.0,
        0.9396926174059803,
        0.0,
        -4.0,
        6.25,
        -4.0,
        1.0
      ],
      "name": "spiderleg8_24"
    },
    {
      "children": [
        42
      ],
      "matrix": [
        0.9396926181366871,
        2.1288428520005453e-09,
        -0.34202015060434404,
        0.0,
        -0.28016650335262216,
        0.5735764503409386,
        -0.7697511195272496,
        0.0,
        0.1961747022900337,
        0.8191520344931634,
        0.5389855569188545,
        0.0,
        2.0,
        0.0,
        0.0,
        1.0
      ],
      "name": "fd47d776-ebcd-cdbc-1e43-d019d4cd2807_21"
    },
    {
      "mesh": 16,
      "name": "Object_42"
    },
    {
      "children": [
        44
      ],
      "matrix": [
        0.9396926192026688,
        -2.3318344199996233e-09,
        -0.3420201476755838,
        0.0,
        0.1961746985977099,
        0.819152045642733,
        0.5389855413175976,
        0.0,
        0.2801665023626591,
        -0.5735764344177033,
        0.7697511317526907,
        0.0,
        1.135109782218933,
        -1.1055152416229248,
        -3.10721755027771,
        1.0
      ],
      "name": "c1baf6d4-ab1f-1470-f47f-b724306dab19_22"
    },
    {
      "mesh": 17,
      "name": "Object_44"
    },
    {
      "children": [
        46
      ],
      "matrix": [
        0.9659258262458409,
        1.16230493285574e-09,
        -0.2588190452638476,
        0.0,
        -0.0669872971068443,
        -0.965925826245841,
        -0.25000000043521786,
        0.0,
        -0.25000000043521786,
        0.2588190452638476,
        -0.9330127017308509,
        0.0,
        0.25,
        -2.25,
        -4.5,
        1.0
      ],
      "name": "0f8bec68-ca3b-c838-dd15-ac8eddeac1be_23"
    },
    {
      "mesh": 18,
      "name": "Object_46"
    },
    {
      "children": [
        48,
        50,
        52
      ],
      "matrix": [
        0.9396926174059803,
        0.0,
        0.34202015261194463,
        0.0,
        -0.0,
        1.0,
        0.0,
        0.0,
        -0.34202015261194463,
        0.0,
        0.9396926174059803,
        0.0,
        -4.0,
        6.25,
        -3.0,
        1.0
      ],
      "name": "spiderleg7_28"
    },
    {
      "children": [
        49
      ],
      "matrix": [
        0.9396926181366871,
        2.1288428520005453e-09,
        -0.34202015060434404,
        0.0,
        -0.28016650335262216,
        0.5735764503409386,
        -0.7697511195272496,
        0.0,
        0.1961747022900337,
        0.8191520344931634,
        0.5389855569188545,
        0.0,
        2.0,
        0.0,
        0.0,
        1.0
      ],
      "name": "2b76973b-9b09-da57-6bef-451d4ee68844_25"
    },
    {
      "mesh": 19,
      "name": "Object_49"
    },
    {
      "children": [
        51
      ],
      "matrix": [
        0.9396926192026688,
        -2.3318344199996233e-09,
        -0.3420201476755838,
        0.0,
        0.1961746985977099,
        0.819152045642733,
        0.5389855413175976,
        0.0,
        0.2801665023626591,
        -0.5735764344177033,
        0.7697511317526907,
        0.0,
        1.135109782218933,
        -1.1055152416229248,
        -3.10721755027771,
        1.0
      ],
      "name": "60e5f064-37cd-ea56-0031-f19c744361cd_26"
    },
    {
      "mesh": 20,
      "name": "Object_51"
    },
    {
      "children": [
        53
      ],
      "matrix": [
        0.9659258262458409,
        1.16230493285574e-09,
        -0.2588190452638476,
        0.0,
        -0.0669872971068443,
        -0.965925826245841,
        -0.25000000043521786,
        0.0,
        -0.25000000043521786,
        0.2588190452638476,
        -0.9330127017308509,
        0.0,
        0.25,
        -2.25,
        -4.5,
        1.0
      ],
      "name": "41a26a80-1057-00dc-b381-e33c9f590727_27"
    },
    {
      "mesh": 21,
      "name": "Object_53"
    },
    {
      "children": [
        55,
        57,
        59
      ],
      "matrix": [
        0.9396926174059803,
        0.0,
        -0.34202015261194463,
        0.0,
        0.0,
        1.0,
        0.0,
        0.0,
        0.34202015261194463,
        0.0,
        0.9396926174059803,
        0.0,
        -4.0,
        6.25,
        3.0,
        1.0
      ],
      "name": "spiderleg6_32"
    },
    {
      "children": [
        56
      ],
      "matrix": [
        0.9396926181366871,
        2.1288428520005453e-09,
        0.34202015060434404,
        0.0,
        -0.28016650335262216,
        0.5735764503409386,
        0.7697511195272496,
        0.0,
        -0.1961747022900337,
        -0.8191520344931634,
        0.5389855569188545,
        0.0,
        2.0,
        0.0,
        0.0,
        1.0
      ],
      "name": "a7c75830-65b1-18bc-64f7-bb832d6d12d0_29"
    },
    {
      "mesh": 22,
      "name": "Object_56"
    },
    {
      "children": [
        58
      ],
      "matrix": [
        0.9396926192026688,
        -2.3318344199996233e-09,
        0.3420201476755838,
        0.0,
        0.1961746985977099,
        0.819152045642733,
        -0.5389855413175976,
        0.0,
        -0.2801665023626591,
        0.5735764344177033,
        0.7697511317526907,
        0.0,
        1.135109782218933,
        -1.1055152416229248,
        3.10721755027771,
        1.0
      ],
      "name": "052669cf-844d-68f2-20d0-7489c38d9848_30"
    },
    {
      "mesh": 23,
      "name": "Object_58"
    },
    {
      "children": [
        60
      ],
      "matrix": [
        0.9659258262458409,
        1.16230493285574e-09,
        0.2588190452638476,
        0.0,
        -0.0669872971068443,
        -0.965925826245841,
        0.25000000043521786,
        0.0,
        0.25000000043521786,
        -0.2588190452638476,
        -0.9330127017308509,
        0.0,
        0.25,
        -2.25,
        4.5,
        1.0
      ],
      "name": "466e5611-ffd5-e28d-9a08-42adbabc6b25_31"
    },
    {
      "mesh": 24,
      "name": "Object_60"
    },
    {
      "children": [
        62,
        64,
        66
      ],
      "matrix": [
        1.0,
        0.0,
        0.0,
        0.0,
        0.0,
        1.0,
        0.0,
        0.0,
        0.0,
        0.0,
        1.0,
        0.0,
        -4.0,
        6.0,
        2.0,
        1.0
      ],
      "name": "spiderleg5_36"
    },
    {
      "children": [
        63
      ],
      "matrix": [
        0.9396926181366871,
        2.1288428520005453e-09,
        -0.34202015060434404,
        0.0,
        -0.28016650335262216,
        0.5735764503409386,
        -0.7697511195272496,
        0.0,
        0.1961747022900337,
        0.8191520344931634,
        0.5389855569188545,
        0.0,
        0.0,
        0.0,
        -4.0,
        1.0
      ],
      "name": "57dc925b-7f59-febf-8b84-063ffa29483f_33"
    },
    {
      "mesh": 25,
      "name": "Object_63"
    },
    {
      "children": [
        65
      ],
      "matrix": [
        0.9396926192026688,
        -2.3318344199996233e-09,
        -0.3420201476755838,
        0.0,
        0.1961746985977099,
        0.819152045642733,
        0.5389855413175976,
        0.0,
        0.2801665023626591,
        -0.5735764344177033,
        0.7697511317526907,
        0.0,
        -0.8648902773857117,
        -1.1055152416229248,
        -7.107217311859131,
        1.0
      ],
      "name": "58341768-d6a0-b0a3-f730-e7fa0b942d80_34"
    },
    {
      "mesh": 26,
      "name": "Object_65"
    },
    {
      "children": [
        67
      ],
      "matrix": [
        0.9659258262458409,
        1.16230493285574e-09,
        -0.2588190452638476,
        0.0,
        -0.0669872971068443,
        -0.965925826245841,
        -0.25000000043521786,
        0.0,
        -0.25000000043521786,
        0.2588190452638476,
        -0.9330127017308509,
        0.0,
        -1.75,
        -2.25,
        -8.5,
        1.0
      ],
      "name": "e01028aa-d573-ca0e-c9be-db1bb6a666f9_35"
    },
    {
      "mesh": 27,
      "name": "Object_67"
    },
    {
      "children": [
        69,
        71,
        73
      ],
      "matrix": [
        0.8660254016890687,
        0.0,
        -0.5000000036292872,
        0.0,
        0.0,
        1.0,
        0.0,
        0.0,
        0.5000000036292872,
        0.0,
        0.8660254016890687,
        0.0,
        -1.0,
        6.25,
        5.0,
        1.0
      ],
      "name": "spiderleg4_40"
    },
    {
      "children": [
        70
      ],
      "matrix": [
        0.9396926181366871,
        2.1288428520005453e-09,
        0.34202015060434404,
        0.0,
        -0.28016650335262216,
        0.5735764503409386,
        0.7697511195272496,
        0.0,
        -0.1961747022900337,
        -0.8191520344931634,
        0.5389855569188545,
        0.0,
        2.0,
        0.0,
        0.0,
        1.0
      ],
      "name": "ad2fb725-8795-9a58-04ec-52b06a85fd6f_37"
    },
    {
      "mesh": 28,
      "name": "Object_70"
    },
    {
      "children": [
        72
      ],
      "matrix": [
        0.9396926192026688,
        -2.3318344199996233e-09,
        0.3420201476755838,
        0.0,
        0.1961746985977099,
        0.819152045642733,
        -0.5389855413175976,
        0.0,
        -0.2801665023626591,
        0.5735764344177033,
        0.7697511317526907,
        0.0,
        1.135109782218933,
        -1.1055152416229248,
        3.10721755027771,
        1.0
      ],
      "name": "b7c836e2-1d85-9bbb-52d5-a708fbdd6ba6_38"
    },
    {
      "mesh": 29,
      "name": "Object_72"
    },
    {
      "children": [
        74
      ],
      "matrix": [
        0.9659258262458409,
        1.16230493285574e-09,
        0.2588190452638476,
        0.0,
        -0.0669872971068443,
        -0.965925826245841,
        0.25000000043521786,
        0.0,
        0.25000000043521786,
        -0.2588190452638476,
        -0.9330127017308509,
        0.0,
        0.25,
        -2.25,
        4.5,
        1.0
      ],
      "name": "d53766bf-9d45-a61a-081a-44970d8ffe01_39"
    },
    {
      "mesh": 30,
      "name": "Object_74"
    },
    {
      "children": [
        76,
        78,
        80
      ],
      "matrix": [
        0.9396926174059803,
        0.0,
        -0.34202015261194463,
        0.0,
        0.0,
        1.0,
        0.0,
        0.0,
        0.34202015261194463,
        0.0,
        0.9396926174059803,
        0.0,
        -4.0,
        6.25,
        4.0,
        1.0
      ],
      "name": "spiderleg3_44"
    },
    {
      "children": [
        77
      ],
      "matrix": [
        0.9396926181366871,
        2.1288428520005453e-09,
        0.34202015060434404,
        0.0,
        -0.28016650335262216,
        0.5735764503409386,
        0.7697511195272496,
        0.0,
        -0.1961747022900337,
        -0.8191520344931634,
        0.5389855569188545,
        0.0,
        2.0,
        0.0,
        0.0,
        1.0
      ],
      "name": "f6fac706-7b4b-8ddd-e2a9-16ffd553e786_41"
    },
    {
      "mesh": 31,
      "name": "Object_77"
    },
    {
      "children": [
        79
      ],
      "matrix": [
        0.9396926192026688,
        -2.3318344199996233e-09,
        0.3420201476755838,
        0.0,
        0.1961746985977099,
        0.819152045642733,
        -0.5389855413175976,
        0.0,
        -0.2801665023626591,
        0.5735764344177033,
        0.7697511317526907,
        0.0,
        1.135109782218933,
        -1.1055152416229248,
        3.10721755027771,
        1.0
      ],
      "name": "0a33bcc8-cb5c-9d43-d70b-af753fc0f73a_42"
    },
    {
      "mesh": 32,
      "name": "Object_79"
    },
    {
      "children": [
        81
      ],
      "matrix": [
        0.9659258262458409,
        1.16230493285574e-09,
        0.2588190452638476,
        0.0,
        -0.0669872971068443,
        -0.965925826245841,
        0.25000000043521786,
        0.0,
        0.25000000043521786,
        -0.2588190452638476,
        -0.9330127017308509,
        0.0,
        0.25,
        -2.25,
        4.5,
        1.0
      ],
      "name": "0c5b99da-a3fe-bfd1-27fe-58e6b8ea2a7c_43"
    },
    {
      "mesh": 33,
      "name": "Object_81"
    },
    {
      "children": [
        83,
        85,
        87
      ],
      "matrix": [
        1.0,
        0.0,
        0.0,
        0.0,
        0.0,
        1.0,
        0.0,
        0.0,
        0.0,
        0.0,
        1.0,
        0.0,
        -4.0,
        6.0,
        2.0,
        1.0
      ],
      "name": "bone_48"
    },
    {
      "children": [
        84
      ],
      "matrix": [
        0.9396926181366871,
        2.1288428520005453e-09,
        0.34202015060434404,
        0.0,
        -0.28016650335262216,
        0.5735764503409386,
        0.7697511195272496,
        0.0,
        -0.1961747022900337,
        -0.8191520344931634,
        0.5389855569188545,
        0.0,
        0.0,
        0.0,
        0.0,
        1.0
      ],
      "name": "0becdb7c-e12b-e849-5b47-c3a82f66c84e_45"
    },
    {
      "mesh": 34,
      "name": "Object_84"
    },
    {
      "children": [
        86
      ],
      "matrix": [
        0.9396926192026688,
        -2.3318344199996233e-09,
        0.3420201476755838,
        0.0,
        0.1961746985977099,
        0.819152045642733,
        -0.5389855413175976,
        0.0,
        -0.2801665023626591,
        0.5735764344177033,
        0.7697511317526907,
        0.0,
        -0.8648902773857117,
        -1.1055152416229248,
        3.10721755027771,
        1.0
      ],
      "name": "cb68f3f5-a0a3-f86d-0758-01eccf3f5063_46"
    },
    {
      "mesh": 35,
      "name": "Object_86"
    },
    {
      "children": [
        88
      ],
      "matrix": [
        0.9659258262458409,
        1.16230493285574e-09,
        0.2588190452638476,
        0.0,
        -0.0669872971068443,
        -0.965925826245841,
        0.25000000043521786,
        0.0,
        0.25000000043521786,
        -0.2588190452638476,
        -0.9330127017308509,
        0.0,
        -1.75,
        -2.25,
        4.5,
        1.0
      ],
      "name": "9e4e3264-be26-0c35-3f6c-c618111c0d10_47"
    },
    {
      "mesh": 36,
      "name": "Object_88"
    }
  ],
  "samplers": [
    {
      "magFilter": 9728,
      "minFilter": 9728,
      "wrapS": 33071,
      "wrapT": 33071
    }
  ],
  "scene": 0,
  "scenes": [
    {
      "name": "Sketchfab_Scene",
      "nodes": [
        0
      ]
    }
  ],
  "textures": [
    {
      "sampler": 0,
      "source": 0
    }
  ]
}
